0
SECTION
2
HEADER
9
$INSUNITS
70
4
0
ENDSEC
0
SECTION
2
TABLES
0
TABLE
2
LTYPE
0
LTYPE
72
65
70
64
2
CONTINUOUS
3
______
73
0
40
0
0
ENDTAB
0
TABLE
2
LAYER
0
ENDTAB
0
ENDSEC
0
SECTION
2
ENTITIES
0
LINE
8
0
10
48.7165243
20
-170.665824
11
43.3351077
21
-93.7079812
0
ARC
8
0
10
156.7244018
20
-578.3504422
40
499.4155432
50
99.8141113
51
102.9409004
0
ARC
8
0
10
128.1451003
20
-411.7287604
40
330.3608944
50
95.4158416
51
99.8557285
0
ARC
8
0
10
117.213775
20
-296.1710594
40
214.2873177
50
90.1941199
51
95.422318
0
ARC
8
0
10
116.6653826
20
-235.3466974
40
153.4618286
50
86.6283695
51
90.0663148
0
ARC
8
0
10
117.8570499
20
-212.7482956
40
130.8325328
50
85.3057501
51
86.5672978
0
LINE
8
0
10
128.6227459
20
-82.3585713
11
147.5650445
21
-83.3555343
0
LINE
8
0
10
147.6215588
20
-83.3593119
11
184.2495517
21
-86.3291492
0
ARC
8
0
10
179.5366332
20
-98.0448837
40
12.7348436
50
31.3760223
51
64.9143082
0
ARC
8
0
10
167.3847178
20
-106.1336731
40
27.327352
50
18.2943216
51
32.5901381
0
ARC
8
0
10
142.0675316
20
-114.8071929
40
54.0882924
50
9.9522068
51
18.5995154
0
ARC
8
0
10
99.5809035
20
-122.5624334
40
97.2763543
50
4.6478531
51
10.1263864
0
ARC
8
0
10
68.7920343
20
-125.5791968
40
128.2094506
50
4.5730617
51
4.8766525
0
ARC
8
0
10
320.1369482
20
-139.2461758
40
125.8321024
50
169.0560028
51
180.0350075
0
ARC
8
0
10
333.4500705
20
-138.8577643
40
139.1459791
50
180.1915934
51
193.7274673
0
ARC
8
0
10
353.8868489
20
-134.4807355
40
160.0387926
50
193.5134739
51
196.0165971
0
LINE
8
0
10
199.7811313
20
-180.3301829
11
187.3978547
21
-198.1715306
0
LINE
8
0
10
185.2294063
20
-198.9608938
11
132.7850174
21
-184.6814927
0
ARC
8
0
10
118.2332622
20
-186.4366774
40
13.5209576
50
13.734115
51
66.2074685
0
ARC
8
0
10
107.0877716
20
-206.9590889
40
36.8456027
50
63.2220501
51
79.0303961
0
ARC
8
0
10
97.6896803
20
-251.4877979
40
82.3524845
50
78.5064395
51
86.939049
0
ARC
8
0
10
93.6535955
20
-310.6691823
40
141.6676268
50
86.5871277
51
90.1068928
0
ARC
8
0
10
93.7863401
20
-378.0798067
40
209.0783816
50
90.1088059
51
93.2478477
0
ARC
8
0
10
98.6528922
20
-467.3757217
40
298.5066526
50
93.2093922
51
95.4078624
0
ARC
8
0
10
108.839416
20
-575.5415845
40
407.1511052
50
95.4004181
51
97.2623693
0
ARC
8
0
10
122.1311196
20
-682.0843226
40
514.5194474
50
97.2308186
51
97.9477872
0
ARC
8
0
10
45.3302357
20
-93.5684682
40
2
50
102.9409004
51
184.0000013
0
ARC
8
0
10
128.7278635
20
-80.3613356
40
2
50
265.3057501
51
266.9872143
0
ARC
8
0
10
147.4599269
20
-85.35277
40
2
50
85.3645346
51
86.9872143
0
ARC
8
0
10
184.0879199
20
-88.3226074
40
2
50
64.9143082
51
85.3645346
0
ARC
8
0
10
198.1381088
20
-179.1897981
40
2
50
325.236357
51
16.0165971
0
ARC
8
0
10
185.7548323
20
-197.0311458
40
2
50
254.7688966
51
325.236357
0
ARC
8
0
10
133.3104434
20
-182.7517447
40
2
50
193.734115
51
254.7688966
0
ARC
8
0
10
50.711652
20
-170.526311
40
2
50
184.0000013
51
277.9477872
0
ENDSEC
0
EOF