0
SECTION
2
HEADER
9
$INSUNITS
70
4
0
ENDSEC
0
SECTION
2
TABLES
0
TABLE
2
LTYPE
0
LTYPE
72
65
70
64
2
CONTINUOUS
3
______
73
0
40
0
0
ENDTAB
0
TABLE
2
LAYER
0
ENDTAB
0
ENDSEC
0
SECTION
2
ENTITIES
0
LINE
8
0
10
-8.814172
20
-10.139545
11
10.139545
21
-8.814172
0
LINE
8
0
10
10.139545
20
-8.814172
11
10.0583222
21
-7.6526323
0
LINE
8
0
10
4.838053
20
67.000696
11
9.4013188
21
1.7429551
0
LINE
8
0
10
-14.115664
20
65.675323
11
-8.814172
21
-10.139545
0
LINE
8
0
10
4.838053
20
67.000696
11
-14.115664
21
65.675323
0
LINE
8
0
10
10.0583222
20
-7.6526323
11
28.8681327
21
-6.6668519
0
LINE
8
0
10
28.8681327
20
-6.6668519
11
28.6417296
21
-2.3468239
0
LINE
8
0
10
24.8905999
20
69.2289929
11
28.1529187
21
6.980244
0
LINE
8
0
10
5.9166387
20
68.2346097
11
9.4013188
21
1.7429551
0
LINE
8
0
10
24.8905999
20
69.2289929
11
5.9166387
21
68.2346097
0
LINE
8
0
10
28.6417296
20
-2.3468239
11
47.3129288
21
-2.0209168
0
LINE
8
0
10
47.3129288
20
-2.0209168
11
47.2577028
21
1.1429771
0
LINE
8
0
10
45.9865459
20
73.967508
11
47.0933268
21
10.5600704
0
LINE
8
0
10
26.9894397
20
73.6359122
11
28.1529187
21
6.980244
0
LINE
8
0
10
45.9865459
20
73.967508
11
26.9894397
21
73.6359122
0
LINE
8
0
10
47.2577028
20
1.1429771
11
66.0933268
21
1.1429771
0
LINE
8
0
10
66.0933268
20
1.1429771
11
66.0933268
21
77.1429771
0
LINE
8
0
10
47.0933268
20
10.5600704
11
47.0933268
21
77.1429771
0
LINE
8
0
10
66.0933268
20
77.1429771
11
47.0933268
21
77.1429771
0
LINE
8
0
10
66.0933269
20
-1.8570228
11
85.0933269
21
-1.8570228
0
LINE
8
0
10
66.0933269
20
-1.8570228
11
66.0933269
21
74.1429772
0
LINE
8
0
10
85.0933269
20
73.1429771
11
85.0933269
21
74.1429772
0
LINE
8
0
10
85.0933269
20
74.1429772
11
66.0933269
21
74.1429772
0
LINE
8
0
10
74.0933269
20
-2.8570228
11
104.0933269
21
-2.8570229
0
LINE
8
0
10
104.0933269
20
-2.8570229
11
104.0933269
21
73.1429771
0
LINE
8
0
10
85.0933269
20
-1.8570228
11
85.0933269
21
-2.8570229
0
LINE
8
0
10
104.0933269
20
73.1429771
11
85.0933269
21
73.1429771
0
LINE
8
0
10
74.0933269
20
-21.8570228
11
92.0794885
21
-21.8570228
0
LINE
8
0
10
93.0933269
20
-17.5883748
11
93.0933269
21
-2.8570228
0
LINE
8
0
10
74.0933269
20
-2.8570228
11
74.0933269
21
-21.8570228
0
LINE
8
0
10
92.0794885
20
-21.8570228
11
109.331549
21
-26.4796985
0
LINE
8
0
10
111.4156486
20
-22.618902
11
115.2284032
21
-8.3895084
0
LINE
8
0
10
115.2284032
20
-8.3895084
11
96.8758125
21
-3.4719465
0
LINE
8
0
10
96.8758125
20
-3.4719465
11
93.0933269
21
-17.5883748
0
LINE
8
0
10
109.331549
20
-26.4796985
11
125.6773324
21
-35.916941
0
LINE
8
0
10
125.6773324
20
-35.916941
11
135.1773324
21
-19.4624584
0
LINE
8
0
10
135.1773324
20
-19.4624584
11
118.7228498
21
-9.9624584
0
LINE
8
0
10
118.7228498
20
-9.9624584
11
111.4156486
21
-22.618902
0
LINE
8
0
10
122.7663411
20
-7.3034642
11
127.683903
21
11.0491265
0
LINE
8
0
10
127.683903
20
11.0491265
11
109.3313123
21
15.9666884
0
LINE
8
0
10
109.3313123
20
15.9666884
11
104.4137504
21
-2.3859023
0
LINE
8
0
10
104.4137504
20
-2.3859023
11
122.7663411
21
-7.3034642
0
ENDSEC
0
EOF