0
SECTION
2
HEADER
9
$INSUNITS
70
4
0
ENDSEC
0
SECTION
2
TABLES
0
TABLE
2
LTYPE
0
LTYPE
72
65
70
64
2
CONTINUOUS
3
______
73
0
40
0
0
ENDTAB
0
TABLE
2
LAYER
0
ENDTAB
0
ENDSEC
0
SECTION
2
ENTITIES
0
LINE
8
0
10
51.1546915
20
-169.6390566
11
46.5276881
21
-95.264636
0
LINE
8
0
10
46.9882014
20
-94.7350759
11
87.1911622
21
-91.6284567
0
LINE
8
0
10
87.6525641
20
-91.1212166
11
87.5863012
21
-87.3250174
0
LINE
8
0
10
88.0583549
20
-86.8170685
11
107.2011969
21
-85.7483805
0
LINE
8
0
10
107.6733268
20
-85.2491578
11
107.6733268
21
-83.9700229
0
LINE
8
0
10
108.1733268
20
-83.4700229
11
125.1753268
21
-83.4700229
0
LINE
8
0
10
125.6753268
20
-83.9700229
11
125.6753268
21
-85.2381998
0
LINE
8
0
10
126.1588883
20
-85.7379295
11
144.1917654
21
-86.3311162
0
LINE
8
0
10
144.6753269
20
-86.8308459
11
144.6753269
21
-88.307531
0
LINE
8
0
10
145.2114167
20
-88.8062268
11
146.5933269
21
-88.7062202
0
LINE
8
0
10
151.4185987
20
-88.3570229
11
163.1392623
21
-87.508817
0
LINE
8
0
10
163.6753522
20
-88.0074893
11
163.6763269
21
-108.7220229
0
LINE
8
0
10
163.6763269
20
-108.7220464
11
163.6763269
21
-172.111025
0
LINE
8
0
10
170.8856027
20
-176.2733024
11
178.156121
21
-172.0756667
0
LINE
8
0
10
177.7213895
20
-171.1780312
11
168.4471063
21
-174.8654358
0
LINE
8
0
10
156.8950177
20
-179.4584833
11
152.4702203
21
-181.2177587
0
LINE
8
0
10
155.3208711
20
-170.5789853
11
156.5992731
21
-168.3647281
0
LINE
8
0
10
156.0099074
20
-167.6398031
11
154.5996615
21
-168.104079
0
LINE
8
0
10
120.4186572
20
-179.3570229
11
117.5438808
21
-180.3034462
0
LINE
8
0
10
137.9509659
20
-173.5851011
11
134.0933268
21
-174.8550987
0
LINE
8
0
10
116.6486419
20
-179.7584146
11
106.8937804
21
-166.738495
0
LINE
8
0
10
106.4611346
20
-166.5393539
11
51.6862238
21
-170.1069532
0
ARC
8
0
10
47.0267233
20
-95.2335898
40
0.5
50
94.4186576
51
104.8390961
0
ARC
8
0
10
47.0267233
20
-95.2335898
40
0.5
50
178.1475798
51
183.5599168
0
ARC
8
0
10
87.1526403
20
-91.1299428
40
0.5
50
274.4186576
51
0.9999996
0
ARC
8
0
10
88.086225
20
-87.3162912
40
0.5
50
93.1953343
51
180.9999996
0
ARC
8
0
10
107.1733268
20
-85.2491578
40
0.5
50
273.1953343
51
0
0
ARC
8
0
10
108.1733268
20
-83.9700229
40
0.5
50
90
51
180
0
ARC
8
0
10
125.1753268
20
-83.9700229
40
0.5
50
0
51
90
0
ARC
8
0
10
126.1753268
20
-85.2381998
40
0.5
50
180
51
268.1159529
0
ARC
8
0
10
144.1753269
20
-86.8308459
40
0.5
50
0
51
88.1159529
0
ARC
8
0
10
145.1753269
20
-88.307531
40
0.5
50
180
51
274.1391918
0
ARC
8
0
10
163.1753522
20
-88.0075128
40
0.5
50
0.0026986
51
16.4575579
0
ARC
8
0
10
163.1753522
20
-88.0075128
40
0.5
50
86.3697859
51
94.1391918
0
ARC
8
0
10
163.1763269
20
-108.7220464
40
0.5
50
0
51
0.0026986
0
ARC
8
0
10
177.906121
20
-171.642654
40
0.5
50
300.0000001
51
111.6824964
0
ARC
8
0
10
156.1662604
20
-168.1147281
40
0.5
50
329.9999999
51
108.2223891
0
ARC
8
0
10
106.4936318
20
-167.0382967
40
0.5
50
36.8415064
51
93.726526
0
ARC
8
0
10
51.6537267
20
-169.6080104
40
0.5
50
183.5599168
51
273.726526
0
LINE
8
0
10
52.5775394
20
-168.5385642
11
68.5385642
21
-167.4224606
0
LINE
8
0
10
68.5385642
20
-167.4224606
11
67.4224606
21
-151.4614358
0
LINE
8
0
10
67.4224606
20
-151.4614358
11
51.4614358
21
-152.5775394
0
LINE
8
0
10
51.4614358
20
-152.5775394
11
52.5775394
21
-168.5385642
0
LINE
8
0
10
51.2521664
20
-149.5848472
11
67.2131912
21
-148.4687436
0
LINE
8
0
10
67.2131912
20
-148.4687436
11
66.0970876
21
-132.5077188
0
LINE
8
0
10
66.0970876
20
-132.5077188
11
50.1360628
21
-133.6238224
0
LINE
8
0
10
50.1360628
20
-133.6238224
11
51.2521664
21
-149.5848472
0
LINE
8
0
10
49.9267934
20
-130.6311302
11
65.8878182
21
-129.5150266
0
LINE
8
0
10
65.8878182
20
-129.5150266
11
64.7717146
21
-113.5540018
0
LINE
8
0
10
64.7717146
20
-113.5540018
11
48.8106898
21
-114.6701054
0
LINE
8
0
10
48.8106898
20
-114.6701054
11
49.9267934
21
-130.6311302
0
LINE
8
0
10
48.6014204
20
-111.6774132
11
64.5624452
21
-110.5613096
0
LINE
8
0
10
64.5624452
20
-110.5613096
11
63.4463416
21
-94.6002848
0
LINE
8
0
10
63.4463416
20
-94.6002848
11
47.4853168
21
-95.7163884
0
LINE
8
0
10
47.4853168
20
-95.7163884
11
48.6014204
21
-111.6774132
0
LINE
8
0
10
71.3136119
20
-166.0847868
11
87.2916844
21
-165.2474115
0
LINE
8
0
10
87.2916844
20
-165.2474115
11
86.4543091
21
-149.269339
0
LINE
8
0
10
86.4543091
20
-149.269339
11
70.4762366
21
-150.1067143
0
LINE
8
0
10
70.4762366
20
-150.1067143
11
71.3136119
21
-166.0847868
0
LINE
8
0
10
70.3192287
20
-147.1108256
11
86.2973012
21
-146.2734503
0
LINE
8
0
10
86.2973012
20
-146.2734503
11
85.4599259
21
-130.2953778
0
LINE
8
0
10
85.4599259
20
-130.2953778
11
69.4818534
21
-131.1327531
0
LINE
8
0
10
69.4818534
20
-131.1327531
11
70.3192287
21
-147.1108256
0
LINE
8
0
10
69.3248455
20
-128.1368644
11
85.302918
21
-127.2994891
0
LINE
8
0
10
85.302918
20
-127.2994891
11
84.4655427
21
-111.3214166
0
LINE
8
0
10
84.4655427
20
-111.3214166
11
68.4874702
21
-112.1587919
0
LINE
8
0
10
68.4874702
20
-112.1587919
11
69.3248455
21
-128.1368644
0
LINE
8
0
10
68.3304623
20
-109.1629032
11
84.3085348
21
-108.3255279
0
LINE
8
0
10
84.3085348
20
-108.3255279
11
83.4711595
21
-92.3474554
0
LINE
8
0
10
83.4711595
20
-92.3474554
11
67.493087
21
-93.1848307
0
LINE
8
0
10
67.493087
20
-93.1848307
11
68.3304623
21
-109.1629032
0
LINE
8
0
10
89.7894155
20
-160.8265624
11
105.7869786
21
-160.5473239
0
LINE
8
0
10
105.7869786
20
-160.5473239
11
105.5077401
21
-144.5497608
0
LINE
8
0
10
105.5077401
20
-144.5497608
11
89.510177
21
-144.8289993
0
LINE
8
0
10
89.510177
20
-144.8289993
11
89.7894155
21
-160.8265624
0
LINE
8
0
10
89.4578198
20
-141.8294562
11
105.4553829
21
-141.5502177
0
LINE
8
0
10
105.4553829
20
-141.5502177
11
105.1761444
21
-125.5526546
0
LINE
8
0
10
105.1761444
20
-125.5526546
11
89.1785813
21
-125.8318931
0
LINE
8
0
10
89.1785813
20
-125.8318931
11
89.4578198
21
-141.8294562
0
LINE
8
0
10
89.1262241
20
-122.83235
11
105.1237872
21
-122.5531115
0
LINE
8
0
10
105.1237872
20
-122.5531115
11
104.8445487
21
-106.5555484
0
LINE
8
0
10
104.8445487
20
-106.5555484
11
88.8469856
21
-106.8347869
0
LINE
8
0
10
88.8469856
20
-106.8347869
11
89.1262241
21
-122.83235
0
LINE
8
0
10
88.7946284
20
-103.8352438
11
104.7921915
21
-103.5560053
0
LINE
8
0
10
104.7921915
20
-103.5560053
11
104.512953
21
-87.5584422
0
LINE
8
0
10
104.512953
20
-87.5584422
11
88.5153899
21
-87.8376807
0
LINE
8
0
10
88.5153899
20
-87.8376807
11
88.7946284
21
-103.8352438
0
LINE
8
0
10
108.5933268
20
-157.3570229
11
124.5933268
21
-157.3570229
0
LINE
8
0
10
124.5933268
20
-157.3570229
11
124.5933268
21
-141.3570229
0
LINE
8
0
10
124.5933268
20
-141.3570229
11
108.5933268
21
-141.3570229
0
LINE
8
0
10
108.5933268
20
-141.3570229
11
108.5933268
21
-157.3570229
0
LINE
8
0
10
108.5933268
20
-138.3570229
11
124.5933268
21
-138.3570229
0
LINE
8
0
10
124.5933268
20
-138.3570229
11
124.5933268
21
-122.3570229
0
LINE
8
0
10
124.5933268
20
-122.3570229
11
108.5933268
21
-122.3570229
0
LINE
8
0
10
108.5933268
20
-122.3570229
11
108.5933268
21
-138.3570229
0
LINE
8
0
10
108.5933268
20
-119.3570229
11
124.5933268
21
-119.3570229
0
LINE
8
0
10
124.5933268
20
-119.3570229
11
124.5933268
21
-103.3570229
0
LINE
8
0
10
124.5933268
20
-103.3570229
11
108.5933268
21
-103.3570229
0
LINE
8
0
10
108.5933268
20
-103.3570229
11
108.5933268
21
-119.3570229
0
LINE
8
0
10
108.5933268
20
-100.3570229
11
124.5933268
21
-100.3570229
0
LINE
8
0
10
124.5933268
20
-100.3570229
11
124.5933268
21
-84.3570229
0
LINE
8
0
10
124.5933268
20
-84.3570229
11
108.5933268
21
-84.3570229
0
LINE
8
0
10
108.5933268
20
-84.3570229
11
108.5933268
21
-100.3570229
0
LINE
8
0
10
127.5933269
20
-160.3570228
11
143.5933269
21
-160.3570228
0
LINE
8
0
10
143.5933269
20
-160.3570228
11
143.5933269
21
-144.3570228
0
LINE
8
0
10
143.5933269
20
-144.3570228
11
127.5933269
21
-144.3570228
0
LINE
8
0
10
127.5933269
20
-144.3570228
11
127.5933269
21
-160.3570228
0
LINE
8
0
10
127.5933269
20
-141.3570228
11
143.5933269
21
-141.3570228
0
LINE
8
0
10
143.5933269
20
-141.3570228
11
143.5933269
21
-125.3570228
0
LINE
8
0
10
143.5933269
20
-125.3570228
11
127.5933269
21
-125.3570228
0
LINE
8
0
10
127.5933269
20
-125.3570228
11
127.5933269
21
-141.3570228
0
LINE
8
0
10
127.5933269
20
-122.3570228
11
143.5933269
21
-122.3570228
0
LINE
8
0
10
143.5933269
20
-122.3570228
11
143.5933269
21
-106.3570228
0
LINE
8
0
10
143.5933269
20
-106.3570228
11
127.5933269
21
-106.3570228
0
LINE
8
0
10
127.5933269
20
-106.3570228
11
127.5933269
21
-122.3570228
0
LINE
8
0
10
127.5933269
20
-103.3570228
11
143.5933269
21
-103.3570228
0
LINE
8
0
10
143.5933269
20
-103.3570228
11
143.5933269
21
-87.3570228
0
LINE
8
0
10
143.5933269
20
-87.3570228
11
127.5933269
21
-87.3570228
0
LINE
8
0
10
127.5933269
20
-87.3570228
11
127.5933269
21
-103.3570228
0
LINE
8
0
10
146.5933269
20
-161.3570229
11
162.5933269
21
-161.3570229
0
LINE
8
0
10
162.5933269
20
-161.3570229
11
162.5933269
21
-145.3570229
0
LINE
8
0
10
162.5933269
20
-145.3570229
11
146.5933269
21
-145.3570229
0
LINE
8
0
10
146.5933269
20
-145.3570229
11
146.5933269
21
-161.3570229
0
LINE
8
0
10
146.5933269
20
-142.3570229
11
162.5933269
21
-142.3570229
0
LINE
8
0
10
162.5933269
20
-142.3570229
11
162.5933269
21
-126.3570229
0
LINE
8
0
10
162.5933269
20
-126.3570229
11
146.5933269
21
-126.3570229
0
LINE
8
0
10
146.5933269
20
-126.3570229
11
146.5933269
21
-142.3570229
0
LINE
8
0
10
146.5933269
20
-123.3570229
11
162.5933269
21
-123.3570229
0
LINE
8
0
10
162.5933269
20
-123.3570229
11
162.5933269
21
-107.3570229
0
LINE
8
0
10
162.5933269
20
-107.3570229
11
146.5933269
21
-107.3570229
0
LINE
8
0
10
146.5933269
20
-107.3570229
11
146.5933269
21
-123.3570229
0
LINE
8
0
10
146.5933269
20
-104.3570229
11
162.5933269
21
-104.3570229
0
LINE
8
0
10
162.5933269
20
-104.3570229
11
162.5933269
21
-88.3570229
0
LINE
8
0
10
162.5933269
20
-88.3570229
11
151.4185987
21
-88.3570229
0
LINE
8
0
10
146.5933269
20
-88.7062202
11
146.5933269
21
-104.3570229
0
LINE
8
0
10
118.0933268
20
-179.3570229
11
120.4186572
21
-179.3570229
0
LINE
8
0
10
134.0933268
20
-174.8550987
11
134.0933268
21
-163.3570229
0
LINE
8
0
10
134.0933268
20
-163.3570229
11
118.0933268
21
-163.3570229
0
LINE
8
0
10
118.0933268
20
-163.3570229
11
118.0933268
21
-179.3570229
0
LINE
8
0
10
152.4702203
20
-181.2177587
11
155.3208711
21
-170.5789853
0
LINE
8
0
10
154.5996615
20
-168.104079
11
140.4364726
21
-164.3090639
0
LINE
8
0
10
140.4364726
20
-164.3090639
11
137.9509659
21
-173.5851011
0
LINE
8
0
10
163.6763269
20
-172.111025
11
161.7718878
21
-171.0114966
0
LINE
8
0
10
170.8856027
20
-176.2733024
11
168.4471063
21
-174.8654358
0
LINE
8
0
10
161.7718878
20
-171.0114966
11
156.8950177
21
-179.4584833
0
ARC
8
0
10
45.884336
20
-94.324677
40
1.1
50
305.7483245
51
337.2383447
0
CIRCLE
8
0
10
69.8941715
20
-167.6612351
40
1.1
0
ARC
8
0
10
164.0933269
20
-86.8570229
40
1.1
50
216.3180165
51
246.5093238
0
ARC
8
0
10
116.5933268
20
-180.8570229
40
1.1
50
30.2153537
51
87.1175827
0
ENDSEC
0
EOF