0
SECTION
2
HEADER
9
$INSUNITS
70
4
0
ENDSEC
0
SECTION
2
TABLES
0
TABLE
2
LTYPE
0
LTYPE
72
65
70
64
2
CONTINUOUS
3
______
73
0
40
0
0
ENDTAB
0
TABLE
2
LAYER
0
ENDTAB
0
ENDSEC
0
SECTION
2
ENTITIES
0
LINE
8
0
10
198.7898985
20
-178.1990509
11
189.7288473
21
-193.898317
0
LINE
8
0
10
183.3958243
20
-196.7904332
11
53.254098
21
-171.6860367
0
LINE
8
0
10
48.4051655
20
-166.2131856
11
43.5879853
21
-97.3242995
0
LINE
8
0
10
48.4546618
20
-91.0109755
11
104.0389206
21
-80.4622377
0
LINE
8
0
10
105.1576283
20
-80.3570229
11
128.1728668
21
-80.3570229
0
LINE
8
0
10
129.0096778
20
-80.4156639
11
194.4301379
21
-89.6298132
0
LINE
8
0
10
199.5933269
20
-95.5711722
11
199.5933269
21
-175.199777
0
ARC
8
0
10
184.5322758
20
-190.899043
40
6
50
259.0817277
51
330.008005
0
ARC
8
0
10
54.3905497
20
-165.7946466
40
6
50
184.0000013
51
259.0817261
0
ARC
8
0
10
49.5733696
20
-96.9057607
40
6
50
100.7457582
51
183.9999999
0
ARC
8
0
10
105.1576283
20
-86.3570229
40
6
50
90
51
100.7457577
0
ARC
8
0
10
128.1728668
20
-86.3570229
40
6
50
81.9829081
51
90
0
ARC
8
0
10
193.5933269
20
-95.5711722
40
6
50
0
51
81.9829081
0
ARC
8
0
10
193.5933269
20
-175.199777
40
6
50
330.0080064
51
0
0
ARC
8
0
10
189.2957997
20
-193.6483775
40
0.5
50
330.008005
51
330.0080064
0
ARC
8
0
10
53.3488023
20
-171.1950875
40
0.5
50
259.0817261
51
259.0817277
0
ARC
8
0
10
44.0867673
20
-97.2894213
40
0.5
50
183.9999999
51
184.0000013
0
ARC
8
0
10
104.1321462
20
-80.9534698
40
0.5
50
100.7457577
51
100.7457582
0
LINE
8
0
10
52.5775394
20
-168.5385642
11
68.5385642
21
-167.4224606
0
LINE
8
0
10
68.5385642
20
-167.4224606
11
67.4224606
21
-151.4614358
0
LINE
8
0
10
67.4224606
20
-151.4614358
11
51.4614358
21
-152.5775394
0
LINE
8
0
10
51.4614358
20
-152.5775394
11
52.5775394
21
-168.5385642
0
LINE
8
0
10
51.2521664
20
-149.5848472
11
67.2131912
21
-148.4687436
0
LINE
8
0
10
67.2131912
20
-148.4687436
11
66.0970876
21
-132.5077188
0
LINE
8
0
10
66.0970876
20
-132.5077188
11
50.1360628
21
-133.6238224
0
LINE
8
0
10
50.1360628
20
-133.6238224
11
51.2521664
21
-149.5848472
0
LINE
8
0
10
49.9267934
20
-130.6311302
11
65.8878182
21
-129.5150266
0
LINE
8
0
10
65.8878182
20
-129.5150266
11
64.7717146
21
-113.5540018
0
LINE
8
0
10
64.7717146
20
-113.5540018
11
48.8106898
21
-114.6701054
0
LINE
8
0
10
48.8106898
20
-114.6701054
11
49.9267934
21
-130.6311302
0
LINE
8
0
10
48.6014204
20
-111.6774132
11
64.5624452
21
-110.5613096
0
LINE
8
0
10
64.5624452
20
-110.5613096
11
63.4463416
21
-94.6002848
0
LINE
8
0
10
63.4463416
20
-94.6002848
11
47.4853168
21
-95.7163884
0
LINE
8
0
10
47.4853168
20
-95.7163884
11
48.6014204
21
-111.6774132
0
LINE
8
0
10
71.3136119
20
-166.0847868
11
87.2916844
21
-165.2474115
0
LINE
8
0
10
87.2916844
20
-165.2474115
11
86.4543091
21
-149.269339
0
LINE
8
0
10
86.4543091
20
-149.269339
11
70.4762366
21
-150.1067143
0
LINE
8
0
10
70.4762366
20
-150.1067143
11
71.3136119
21
-166.0847868
0
LINE
8
0
10
70.3192287
20
-147.1108256
11
86.2973012
21
-146.2734503
0
LINE
8
0
10
86.2973012
20
-146.2734503
11
85.4599259
21
-130.2953778
0
LINE
8
0
10
85.4599259
20
-130.2953778
11
69.4818534
21
-131.1327531
0
LINE
8
0
10
69.4818534
20
-131.1327531
11
70.3192287
21
-147.1108256
0
LINE
8
0
10
69.3248455
20
-128.1368644
11
85.302918
21
-127.2994891
0
LINE
8
0
10
85.302918
20
-127.2994891
11
84.4655427
21
-111.3214166
0
LINE
8
0
10
84.4655427
20
-111.3214166
11
68.4874702
21
-112.1587919
0
LINE
8
0
10
68.4874702
20
-112.1587919
11
69.3248455
21
-128.1368644
0
LINE
8
0
10
68.3304623
20
-109.1629032
11
84.3085348
21
-108.3255279
0
LINE
8
0
10
84.3085348
20
-108.3255279
11
83.4711595
21
-92.3474554
0
LINE
8
0
10
83.4711595
20
-92.3474554
11
67.493087
21
-93.1848307
0
LINE
8
0
10
67.493087
20
-93.1848307
11
68.3304623
21
-109.1629032
0
LINE
8
0
10
89.7894155
20
-160.8265624
11
105.7869786
21
-160.5473239
0
LINE
8
0
10
105.7869786
20
-160.5473239
11
105.5077401
21
-144.5497608
0
LINE
8
0
10
105.5077401
20
-144.5497608
11
89.510177
21
-144.8289993
0
LINE
8
0
10
89.510177
20
-144.8289993
11
89.7894155
21
-160.8265624
0
LINE
8
0
10
89.4578198
20
-141.8294562
11
105.4553829
21
-141.5502177
0
LINE
8
0
10
105.4553829
20
-141.5502177
11
105.1761444
21
-125.5526546
0
LINE
8
0
10
105.1761444
20
-125.5526546
11
89.1785813
21
-125.8318931
0
LINE
8
0
10
89.1785813
20
-125.8318931
11
89.4578198
21
-141.8294562
0
LINE
8
0
10
89.1262241
20
-122.83235
11
105.1237872
21
-122.5531115
0
LINE
8
0
10
105.1237872
20
-122.5531115
11
104.8445487
21
-106.5555484
0
LINE
8
0
10
104.8445487
20
-106.5555484
11
88.8469856
21
-106.8347869
0
LINE
8
0
10
88.8469856
20
-106.8347869
11
89.1262241
21
-122.83235
0
LINE
8
0
10
88.7946284
20
-103.8352438
11
104.7921915
21
-103.5560053
0
LINE
8
0
10
104.7921915
20
-103.5560053
11
104.512953
21
-87.5584422
0
LINE
8
0
10
104.512953
20
-87.5584422
11
88.5153899
21
-87.8376807
0
LINE
8
0
10
88.5153899
20
-87.8376807
11
88.7946284
21
-103.8352438
0
LINE
8
0
10
108.5933268
20
-157.3570229
11
124.5933268
21
-157.3570229
0
LINE
8
0
10
124.5933268
20
-157.3570229
11
124.5933268
21
-141.3570229
0
LINE
8
0
10
124.5933268
20
-141.3570229
11
108.5933268
21
-141.3570229
0
LINE
8
0
10
108.5933268
20
-141.3570229
11
108.5933268
21
-157.3570229
0
LINE
8
0
10
108.5933268
20
-138.3570229
11
124.5933268
21
-138.3570229
0
LINE
8
0
10
124.5933268
20
-138.3570229
11
124.5933268
21
-122.3570229
0
LINE
8
0
10
124.5933268
20
-122.3570229
11
108.5933268
21
-122.3570229
0
LINE
8
0
10
108.5933268
20
-122.3570229
11
108.5933268
21
-138.3570229
0
LINE
8
0
10
108.5933268
20
-119.3570229
11
124.5933268
21
-119.3570229
0
LINE
8
0
10
124.5933268
20
-119.3570229
11
124.5933268
21
-103.3570229
0
LINE
8
0
10
124.5933268
20
-103.3570229
11
108.5933268
21
-103.3570229
0
LINE
8
0
10
108.5933268
20
-103.3570229
11
108.5933268
21
-119.3570229
0
LINE
8
0
10
108.5933268
20
-100.3570229
11
124.5933268
21
-100.3570229
0
LINE
8
0
10
124.5933268
20
-100.3570229
11
124.5933268
21
-84.3570229
0
LINE
8
0
10
124.5933268
20
-84.3570229
11
108.5933268
21
-84.3570229
0
LINE
8
0
10
108.5933268
20
-84.3570229
11
108.5933268
21
-100.3570229
0
LINE
8
0
10
127.5933269
20
-160.3570228
11
143.5933269
21
-160.3570228
0
LINE
8
0
10
143.5933269
20
-160.3570228
11
143.5933269
21
-144.3570228
0
LINE
8
0
10
143.5933269
20
-144.3570228
11
127.5933269
21
-144.3570228
0
LINE
8
0
10
127.5933269
20
-144.3570228
11
127.5933269
21
-160.3570228
0
LINE
8
0
10
127.5933269
20
-141.3570228
11
143.5933269
21
-141.3570228
0
LINE
8
0
10
143.5933269
20
-141.3570228
11
143.5933269
21
-125.3570228
0
LINE
8
0
10
143.5933269
20
-125.3570228
11
127.5933269
21
-125.3570228
0
LINE
8
0
10
127.5933269
20
-125.3570228
11
127.5933269
21
-141.3570228
0
LINE
8
0
10
127.5933269
20
-122.3570228
11
143.5933269
21
-122.3570228
0
LINE
8
0
10
143.5933269
20
-122.3570228
11
143.5933269
21
-106.3570228
0
LINE
8
0
10
143.5933269
20
-106.3570228
11
127.5933269
21
-106.3570228
0
LINE
8
0
10
127.5933269
20
-106.3570228
11
127.5933269
21
-122.3570228
0
LINE
8
0
10
127.5933269
20
-103.3570228
11
143.5933269
21
-103.3570228
0
LINE
8
0
10
143.5933269
20
-103.3570228
11
143.5933269
21
-87.3570228
0
LINE
8
0
10
143.5933269
20
-87.3570228
11
127.5933269
21
-87.3570228
0
LINE
8
0
10
127.5933269
20
-87.3570228
11
127.5933269
21
-103.3570228
0
LINE
8
0
10
146.5933269
20
-161.3570229
11
162.5933269
21
-161.3570229
0
LINE
8
0
10
162.5933269
20
-161.3570229
11
162.5933269
21
-145.3570229
0
LINE
8
0
10
162.5933269
20
-145.3570229
11
146.5933269
21
-145.3570229
0
LINE
8
0
10
146.5933269
20
-145.3570229
11
146.5933269
21
-161.3570229
0
LINE
8
0
10
146.5933269
20
-142.3570229
11
162.5933269
21
-142.3570229
0
LINE
8
0
10
162.5933269
20
-142.3570229
11
162.5933269
21
-126.3570229
0
LINE
8
0
10
162.5933269
20
-126.3570229
11
146.5933269
21
-126.3570229
0
LINE
8
0
10
146.5933269
20
-126.3570229
11
146.5933269
21
-142.3570229
0
LINE
8
0
10
146.5933269
20
-123.3570229
11
162.5933269
21
-123.3570229
0
LINE
8
0
10
162.5933269
20
-123.3570229
11
162.5933269
21
-107.3570229
0
LINE
8
0
10
162.5933269
20
-107.3570229
11
146.5933269
21
-107.3570229
0
LINE
8
0
10
146.5933269
20
-107.3570229
11
146.5933269
21
-123.3570229
0
LINE
8
0
10
146.5933269
20
-104.3570229
11
162.5933269
21
-104.3570229
0
LINE
8
0
10
162.5933269
20
-104.3570229
11
162.5933269
21
-88.3570229
0
LINE
8
0
10
162.5933269
20
-88.3570229
11
146.5933269
21
-88.3570229
0
LINE
8
0
10
146.5933269
20
-88.3570229
11
146.5933269
21
-104.3570229
0
LINE
8
0
10
135.5933269
20
-180.3570228
11
151.5933269
21
-180.3570228
0
LINE
8
0
10
151.5933269
20
-180.3570228
11
151.5933269
21
-164.3570228
0
LINE
8
0
10
151.5933269
20
-164.3570228
11
135.5933269
21
-164.3570228
0
LINE
8
0
10
135.5933269
20
-164.3570228
11
135.5933269
21
-180.3570228
0
LINE
8
0
10
153.7953679
20
-180.763877
11
169.2501811
21
-184.9049818
0
LINE
8
0
10
169.2501811
20
-184.9049818
11
173.3912859
21
-169.4501686
0
LINE
8
0
10
173.3912859
20
-169.4501686
11
157.9364727
21
-165.3090638
0
LINE
8
0
10
157.9364727
20
-165.3090638
11
153.7953679
21
-180.763877
0
LINE
8
0
10
171.2718879
20
-185.8679029
11
185.1282943
21
-193.8679029
0
LINE
8
0
10
185.1282943
20
-193.8679029
11
193.1282943
21
-180.0114965
0
LINE
8
0
10
193.1282943
20
-180.0114965
11
179.2718879
21
-172.0114965
0
LINE
8
0
10
179.2718879
20
-172.0114965
11
171.2718879
21
-185.8679029
0
CIRCLE
8
0
10
65.1624438
20
-90.4705157
40
1.1
0
CIRCLE
8
0
10
67.6331095
20
-172.2859079
40
1.1
0
CIRCLE
8
0
10
103.5933268
20
-83.3570229
40
1.1
0
CIRCLE
8
0
10
129.5933268
20
-83.3570229
40
1.1
0
CIRCLE
8
0
10
128.5933269
20
-182.3570228
40
1.1
0
CIRCLE
8
0
10
176.2000911
20
-193.3320045
40
1.1
0
CIRCLE
8
0
10
196.8603451
20
-177.5473949
40
1.1
0
ENDSEC
0
EOF