0
SECTION
2
HEADER
9
$INSUNITS
70
4
0
ENDSEC
0
SECTION
2
TABLES
0
TABLE
2
LTYPE
0
LTYPE
72
65
70
64
2
CONTINUOUS
3
______
73
0
40
0
0
ENDTAB
0
TABLE
2
LAYER
0
ENDTAB
0
ENDSEC
0
SECTION
2
ENTITIES
0
LINE
8
0
10
53.6448599
20
-169.4663718
11
67.6107567
21
-168.4897811
0
LINE
8
0
10
69.4663718
20
-166.3551401
11
68.4897811
21
-152.3892433
0
LINE
8
0
10
66.3551401
20
-150.5336282
11
52.3892433
21
-151.5102189
0
LINE
8
0
10
50.5336282
20
-153.6448599
11
51.5102189
21
-167.6107567
0
LINE
8
0
10
52.3194869
20
-150.5126548
11
66.2853837
21
-149.5360641
0
LINE
8
0
10
68.1409988
20
-147.4014231
11
67.1644081
21
-133.4355263
0
LINE
8
0
10
65.0297671
20
-131.5799112
11
51.0638703
21
-132.5565019
0
LINE
8
0
10
49.2082552
20
-134.6911429
11
50.1848459
21
-148.6570397
0
LINE
8
0
10
50.9941139
20
-131.5589378
11
64.9600107
21
-130.5823471
0
LINE
8
0
10
66.8156258
20
-128.4477061
11
65.8390351
21
-114.4818093
0
LINE
8
0
10
63.7043941
20
-112.6261942
11
49.7384973
21
-113.6027849
0
LINE
8
0
10
47.8828822
20
-115.7374259
11
48.8594729
21
-129.7033227
0
LINE
8
0
10
49.6687409
20
-112.6052208
11
63.6346377
21
-111.6286301
0
LINE
8
0
10
65.4902528
20
-109.4939891
11
64.5136621
21
-95.5280923
0
LINE
8
0
10
62.3790211
20
-93.6724772
11
48.4131243
21
-94.6490679
0
LINE
8
0
10
46.5575092
20
-96.7837089
11
47.5340999
21
-110.7496057
0
LINE
8
0
10
72.3645775
20
-167.0310804
11
86.3453909
21
-166.298377
0
LINE
8
0
10
88.237978
20
-164.1964459
11
87.5052746
21
-150.2156325
0
LINE
8
0
10
85.4033435
20
-148.3230454
11
71.4225301
21
-149.0557488
0
LINE
8
0
10
69.529943
20
-151.1576799
11
70.2626464
21
-165.1384933
0
LINE
8
0
10
71.3701943
20
-148.0571192
11
85.3510077
21
-147.3244158
0
LINE
8
0
10
87.2435948
20
-145.2224847
11
86.5108914
21
-131.2416713
0
LINE
8
0
10
84.4089603
20
-129.3490842
11
70.4281469
21
-130.0817876
0
LINE
8
0
10
68.5355598
20
-132.1837187
11
69.2682632
21
-146.1645321
0
LINE
8
0
10
70.3758111
20
-129.083158
11
84.3566245
21
-128.3504546
0
LINE
8
0
10
86.2492116
20
-126.2485235
11
85.5165082
21
-112.2677101
0
LINE
8
0
10
83.4145771
20
-110.375123
11
69.4337637
21
-111.1078264
0
LINE
8
0
10
67.5411766
20
-113.2097575
11
68.27388
21
-127.1905709
0
LINE
8
0
10
69.3814279
20
-110.1091968
11
83.3622413
21
-109.3764934
0
LINE
8
0
10
85.2548284
20
-107.2745623
11
84.522125
21
-93.2937489
0
LINE
8
0
10
82.4201939
20
-91.4011618
11
68.4393805
21
-92.1338652
0
LINE
8
0
10
66.5467934
20
-94.2357963
11
67.2794968
21
-108.2166097
0
LINE
8
0
10
90.8067156
20
-161.8089577
11
104.8045833
21
-161.564624
0
LINE
8
0
10
106.7693739
20
-159.5300238
11
106.5250402
21
-145.5321561
0
LINE
8
0
10
104.49044
20
-143.5673655
11
90.4925723
21
-143.8116992
0
LINE
8
0
10
88.5277817
20
-145.8462994
11
88.7721154
21
-159.8441671
0
LINE
8
0
10
90.4751199
20
-142.8118515
11
104.4729876
21
-142.5675178
0
LINE
8
0
10
106.4377782
20
-140.5329176
11
106.1934445
21
-126.5350499
0
LINE
8
0
10
104.1588443
20
-124.5702593
11
90.1609766
21
-124.814593
0
LINE
8
0
10
88.196186
20
-126.8491932
11
88.4405197
21
-140.8470609
0
LINE
8
0
10
90.1435242
20
-123.8147453
11
104.1413919
21
-123.5704116
0
LINE
8
0
10
106.1061825
20
-121.5358114
11
105.8618488
21
-107.5379437
0
LINE
8
0
10
103.8272486
20
-105.5731531
11
89.8293809
21
-105.8174868
0
LINE
8
0
10
87.8645903
20
-107.852087
11
88.108924
21
-121.8499547
0
LINE
8
0
10
89.8119285
20
-104.8176391
11
103.8097962
21
-104.5733054
0
LINE
8
0
10
105.7745868
20
-102.5387052
11
105.5302531
21
-88.5408375
0
LINE
8
0
10
103.4956529
20
-86.5760469
11
89.4977852
21
-86.8203806
0
LINE
8
0
10
87.5329946
20
-88.8549808
11
87.7773283
21
-102.8528485
0
LINE
8
0
10
109.5933268
20
-158.3570229
11
123.5933268
21
-158.3570229
0
LINE
8
0
10
125.5933268
20
-156.3570229
11
125.5933268
21
-142.3570229
0
LINE
8
0
10
123.5933268
20
-140.3570229
11
109.5933268
21
-140.3570229
0
LINE
8
0
10
107.5933268
20
-142.3570229
11
107.5933268
21
-156.3570229
0
LINE
8
0
10
109.5933268
20
-139.3570229
11
123.5933268
21
-139.3570229
0
LINE
8
0
10
125.5933268
20
-137.3570229
11
125.5933268
21
-123.3570229
0
LINE
8
0
10
123.5933268
20
-121.3570229
11
109.5933268
21
-121.3570229
0
LINE
8
0
10
107.5933268
20
-123.3570229
11
107.5933268
21
-137.3570229
0
LINE
8
0
10
109.5933268
20
-120.3570229
11
123.5933268
21
-120.3570229
0
LINE
8
0
10
125.5933268
20
-118.3570229
11
125.5933268
21
-104.3570229
0
LINE
8
0
10
123.5933268
20
-102.3570229
11
109.5933268
21
-102.3570229
0
LINE
8
0
10
107.5933268
20
-104.3570229
11
107.5933268
21
-118.3570229
0
LINE
8
0
10
109.5933268
20
-101.3570229
11
123.5933268
21
-101.3570229
0
LINE
8
0
10
125.5933268
20
-99.3570229
11
125.5933268
21
-85.3570229
0
LINE
8
0
10
123.5933268
20
-83.3570229
11
109.5933268
21
-83.3570229
0
LINE
8
0
10
107.5933268
20
-85.3570229
11
107.5933268
21
-99.3570229
0
LINE
8
0
10
128.5933269
20
-161.3570228
11
142.5933269
21
-161.3570228
0
LINE
8
0
10
144.5933269
20
-159.3570228
11
144.5933269
21
-145.3570228
0
LINE
8
0
10
142.5933269
20
-143.3570228
11
128.5933269
21
-143.3570228
0
LINE
8
0
10
126.5933269
20
-145.3570228
11
126.5933269
21
-159.3570228
0
LINE
8
0
10
128.5933269
20
-142.3570228
11
142.5933269
21
-142.3570228
0
LINE
8
0
10
144.5933269
20
-140.3570228
11
144.5933269
21
-126.3570228
0
LINE
8
0
10
142.5933269
20
-124.3570228
11
128.5933269
21
-124.3570228
0
LINE
8
0
10
126.5933269
20
-126.3570228
11
126.5933269
21
-140.3570228
0
LINE
8
0
10
128.5933269
20
-123.3570228
11
142.5933269
21
-123.3570228
0
LINE
8
0
10
144.5933269
20
-121.3570228
11
144.5933269
21
-107.3570228
0
LINE
8
0
10
142.5933269
20
-105.3570228
11
128.5933269
21
-105.3570228
0
LINE
8
0
10
126.5933269
20
-107.3570228
11
126.5933269
21
-121.3570228
0
LINE
8
0
10
128.5933269
20
-104.3570228
11
142.5933269
21
-104.3570228
0
LINE
8
0
10
144.5933269
20
-102.3570228
11
144.5933269
21
-88.3570228
0
LINE
8
0
10
142.5933269
20
-86.3570228
11
128.5933269
21
-86.3570228
0
LINE
8
0
10
126.5933269
20
-88.3570228
11
126.5933269
21
-102.3570228
0
LINE
8
0
10
147.5933269
20
-162.3570229
11
161.5933269
21
-162.3570229
0
LINE
8
0
10
163.5933269
20
-160.3570229
11
163.5933269
21
-146.3570229
0
LINE
8
0
10
161.5933269
20
-144.3570229
11
147.5933269
21
-144.3570229
0
LINE
8
0
10
145.5933269
20
-146.3570229
11
145.5933269
21
-160.3570229
0
LINE
8
0
10
147.5933269
20
-143.3570229
11
161.5933269
21
-143.3570229
0
LINE
8
0
10
163.5933269
20
-141.3570229
11
163.5933269
21
-127.3570229
0
LINE
8
0
10
161.5933269
20
-125.3570229
11
147.5933269
21
-125.3570229
0
LINE
8
0
10
145.5933269
20
-127.3570229
11
145.5933269
21
-141.3570229
0
LINE
8
0
10
147.5933269
20
-124.3570229
11
161.5933269
21
-124.3570229
0
LINE
8
0
10
163.5933269
20
-122.3570229
11
163.5933269
21
-108.3570229
0
LINE
8
0
10
161.5933269
20
-106.3570229
11
147.5933269
21
-106.3570229
0
LINE
8
0
10
145.5933269
20
-108.3570229
11
145.5933269
21
-122.3570229
0
LINE
8
0
10
147.5933269
20
-105.3570229
11
161.5933269
21
-105.3570229
0
LINE
8
0
10
163.5933269
20
-103.3570229
11
163.5933269
21
-89.3570229
0
LINE
8
0
10
161.5933269
20
-87.3570229
11
147.5933269
21
-87.3570229
0
LINE
8
0
10
145.5933269
20
-89.3570229
11
145.5933269
21
-103.3570229
0
LINE
8
0
10
136.5933269
20
-181.3570228
11
150.5933269
21
-181.3570228
0
LINE
8
0
10
152.5933269
20
-179.3570228
11
152.5933269
21
-165.3570228
0
LINE
8
0
10
150.5933269
20
-163.3570228
11
136.5933269
21
-163.3570228
0
LINE
8
0
10
134.5933269
20
-165.3570228
11
134.5933269
21
-179.3570228
0
LINE
8
0
10
154.5024749
20
-181.9886219
11
168.0254363
21
-185.6120885
0
LINE
8
0
10
170.474926
20
-184.1978748
11
174.0983926
21
-170.6749134
0
LINE
8
0
10
172.6841789
20
-168.2254237
11
159.1612175
21
-164.6019571
0
LINE
8
0
10
156.7117278
20
-166.0161708
11
153.0882612
21
-179.5391322
0
LINE
8
0
10
171.6379133
20
-187.2339283
11
183.7622689
21
-194.2339283
0
LINE
8
0
10
186.4943197
20
-193.5018775
11
193.4943197
21
-181.3775219
0
LINE
8
0
10
192.7622689
20
-178.6454711
11
180.6379133
21
-171.6454711
0
LINE
8
0
10
177.9058625
20
-172.3775219
11
170.9058625
21
-184.5018775
0
LINE
8
0
10
182.9304258
20
-164.7592399
11
186.5538924
21
-151.2362785
0
LINE
8
0
10
185.1396787
20
-148.7867888
11
171.6167173
21
-145.1633222
0
LINE
8
0
10
169.1672276
20
-146.5775359
11
165.543761
21
-160.1004973
0
LINE
8
0
10
166.9579747
20
-162.549987
11
180.4809361
21
-166.1734536
0
ARC
8
0
10
123.5933268
20
-156.3570229
40
2
50
270
51
0
0
ARC
8
0
10
123.5933268
20
-142.3570229
40
2
50
0
51
90
0
ARC
8
0
10
109.5933268
20
-142.3570229
40
2
50
90
51
180
0
ARC
8
0
10
109.5933268
20
-156.3570229
40
2
50
180
51
270
0
ARC
8
0
10
123.5933268
20
-137.3570229
40
2
50
270
51
0
0
ARC
8
0
10
123.5933268
20
-123.3570229
40
2
50
0
51
90
0
ARC
8
0
10
109.5933268
20
-123.3570229
40
2
50
90
51
180
0
ARC
8
0
10
109.5933268
20
-137.3570229
40
2
50
180
51
270
0
ARC
8
0
10
123.5933268
20
-118.3570229
40
2
50
270
51
0
0
ARC
8
0
10
123.5933268
20
-104.3570229
40
2
50
0
51
90
0
ARC
8
0
10
109.5933268
20
-104.3570229
40
2
50
90
51
180
0
ARC
8
0
10
109.5933268
20
-118.3570229
40
2
50
180
51
270
0
ARC
8
0
10
123.5933268
20
-99.3570229
40
2
50
270
51
0
0
ARC
8
0
10
123.5933268
20
-85.3570229
40
2
50
0
51
90
0
ARC
8
0
10
109.5933268
20
-85.3570229
40
2
50
90
51
180
0
ARC
8
0
10
109.5933268
20
-99.3570229
40
2
50
180
51
270
0
ARC
8
0
10
142.5933269
20
-159.3570228
40
2
50
270
51
0
0
ARC
8
0
10
142.5933269
20
-145.3570228
40
2
50
0
51
90
0
ARC
8
0
10
128.5933269
20
-145.3570228
40
2
50
90
51
180
0
ARC
8
0
10
128.5933269
20
-159.3570228
40
2
50
180
51
270
0
ARC
8
0
10
142.5933269
20
-140.3570228
40
2
50
270
51
0
0
ARC
8
0
10
142.5933269
20
-126.3570228
40
2
50
0
51
90
0
ARC
8
0
10
128.5933269
20
-126.3570228
40
2
50
90
51
180
0
ARC
8
0
10
128.5933269
20
-140.3570228
40
2
50
180
51
270
0
ARC
8
0
10
142.5933269
20
-121.3570228
40
2
50
270
51
0
0
ARC
8
0
10
142.5933269
20
-107.3570228
40
2
50
0
51
90
0
ARC
8
0
10
128.5933269
20
-107.3570228
40
2
50
90
51
180
0
ARC
8
0
10
128.5933269
20
-121.3570228
40
2
50
180
51
270
0
ARC
8
0
10
142.5933269
20
-102.3570228
40
2
50
270
51
0
0
ARC
8
0
10
142.5933269
20
-88.3570228
40
2
50
0
51
90
0
ARC
8
0
10
128.5933269
20
-88.3570228
40
2
50
90
51
180
0
ARC
8
0
10
128.5933269
20
-102.3570228
40
2
50
180
51
270
0
ARC
8
0
10
161.5933269
20
-160.3570229
40
2
50
270
51
0
0
ARC
8
0
10
161.5933269
20
-146.3570229
40
2
50
0
51
90
0
ARC
8
0
10
147.5933269
20
-146.3570229
40
2
50
90
51
180
0
ARC
8
0
10
147.5933269
20
-160.3570229
40
2
50
180
51
270
0
ARC
8
0
10
161.5933269
20
-141.3570229
40
2
50
270
51
0
0
ARC
8
0
10
161.5933269
20
-127.3570229
40
2
50
0
51
90
0
ARC
8
0
10
147.5933269
20
-127.3570229
40
2
50
90
51
180
0
ARC
8
0
10
147.5933269
20
-141.3570229
40
2
50
180
51
270
0
ARC
8
0
10
161.5933269
20
-122.3570229
40
2
50
270
51
0
0
ARC
8
0
10
161.5933269
20
-108.3570229
40
2
50
0
51
90
0
ARC
8
0
10
147.5933269
20
-108.3570229
40
2
50
90
51
180
0
ARC
8
0
10
147.5933269
20
-122.3570229
40
2
50
180
51
270
0
ARC
8
0
10
161.5933269
20
-103.3570229
40
2
50
270
51
0
0
ARC
8
0
10
161.5933269
20
-89.3570229
40
2
50
0
51
90
0
ARC
8
0
10
147.5933269
20
-89.3570229
40
2
50
90
51
180
0
ARC
8
0
10
147.5933269
20
-103.3570229
40
2
50
180
51
270
0
ARC
8
0
10
150.5933269
20
-179.3570228
40
2
50
270
51
0
0
ARC
8
0
10
150.5933269
20
-165.3570228
40
2
50
0
51
90
0
ARC
8
0
10
136.5933269
20
-165.3570228
40
2
50
90
51
180
0
ARC
8
0
10
136.5933269
20
-179.3570228
40
2
50
180
51
270
0
ARC
8
0
10
63.4951247
20
-109.633502
40
2
50
274.0000013
51
4.0000013
0
ARC
8
0
10
62.518534
20
-95.6676053
40
2
50
4.0000013
51
94.0000013
0
ARC
8
0
10
48.5526373
20
-96.644196
40
2
50
94.0000013
51
184.0000013
0
ARC
8
0
10
49.529228
20
-110.6100927
40
2
50
184.0000013
51
274.0000013
0
ARC
8
0
10
67.4712437
20
-166.494653
40
2
50
274.0000013
51
4.0000013
0
ARC
8
0
10
66.494653
20
-152.5287563
40
2
50
4.0000013
51
94.0000013
0
ARC
8
0
10
52.5287563
20
-153.505347
40
2
50
94.0000013
51
184.0000013
0
ARC
8
0
10
53.505347
20
-167.4712437
40
2
50
184.0000013
51
274.0000013
0
ARC
8
0
10
64.8204977
20
-128.587219
40
2
50
274.0000013
51
4.0000013
0
ARC
8
0
10
63.843907
20
-114.6213223
40
2
50
4.0000013
51
94.0000013
0
ARC
8
0
10
49.8780103
20
-115.597913
40
2
50
94.0000013
51
184.0000013
0
ARC
8
0
10
50.854601
20
-129.5638097
40
2
50
184.0000013
51
274.0000013
0
ARC
8
0
10
66.1458707
20
-147.540936
40
2
50
274.0000013
51
4.0000013
0
ARC
8
0
10
65.16928
20
-133.5750393
40
2
50
4.0000013
51
94.0000013
0
ARC
8
0
10
51.2033833
20
-134.55163
40
2
50
94.0000013
51
184.0000013
0
ARC
8
0
10
52.179974
20
-148.5175267
40
2
50
184.0000013
51
274.0000013
0
ARC
8
0
10
104.1064871
20
-121.5707162
40
2
50
270.9999996
51
0.9999996
0
ARC
8
0
10
103.8621534
20
-107.5728485
40
2
50
0.9999996
51
90.9999996
0
ARC
8
0
10
89.8642857
20
-107.8171822
40
2
50
90.9999996
51
180.9999996
0
ARC
8
0
10
90.1086194
20
-121.8150499
40
2
50
180.9999996
51
270.9999996
0
ARC
8
0
10
103.7748914
20
-102.57361
40
2
50
270.9999996
51
0.9999996
0
ARC
8
0
10
103.5305577
20
-88.5757423
40
2
50
0.9999996
51
90.9999996
0
ARC
8
0
10
89.53269
20
-88.820076
40
2
50
90.9999996
51
180.9999996
0
ARC
8
0
10
89.7770237
20
-102.8179437
40
2
50
180.9999996
51
270.9999996
0
ARC
8
0
10
104.4380828
20
-140.5678224
40
2
50
270.9999996
51
0.9999996
0
ARC
8
0
10
104.1937491
20
-126.5699547
40
2
50
0.9999996
51
90.9999996
0
ARC
8
0
10
90.1958814
20
-126.8142884
40
2
50
90.9999996
51
180.9999996
0
ARC
8
0
10
90.4402151
20
-140.8121561
40
2
50
180.9999996
51
270.9999996
0
ARC
8
0
10
104.7696785
20
-159.5649286
40
2
50
270.9999996
51
0.9999996
0
ARC
8
0
10
104.5253448
20
-145.5670609
40
2
50
0.9999996
51
90.9999996
0
ARC
8
0
10
90.5274771
20
-145.8113946
40
2
50
90.9999996
51
180.9999996
0
ARC
8
0
10
90.7718108
20
-159.8092623
40
2
50
180.9999996
51
270.9999996
0
ARC
8
0
10
86.2407189
20
-164.3011179
40
2
50
273.0000026
51
3.0000026
0
ARC
8
0
10
85.5080155
20
-150.3203045
40
2
50
3.0000026
51
93.0000026
0
ARC
8
0
10
71.5272021
20
-151.0530079
40
2
50
93.0000026
51
183.0000026
0
ARC
8
0
10
72.2599055
20
-165.0338213
40
2
50
183.0000026
51
273.0000026
0
ARC
8
0
10
84.2519525
20
-126.3531955
40
2
50
273.0000026
51
3.0000026
0
ARC
8
0
10
83.5192491
20
-112.3723821
40
2
50
3.0000026
51
93.0000026
0
ARC
8
0
10
69.5384357
20
-113.1050855
40
2
50
93.0000026
51
183.0000026
0
ARC
8
0
10
70.2711391
20
-127.0858989
40
2
50
183.0000026
51
273.0000026
0
ARC
8
0
10
85.2463357
20
-145.3271567
40
2
50
273.0000026
51
3.0000026
0
ARC
8
0
10
84.5136323
20
-131.3463433
40
2
50
3.0000026
51
93.0000026
0
ARC
8
0
10
70.5328189
20
-132.0790467
40
2
50
93.0000026
51
183.0000026
0
ARC
8
0
10
71.2655223
20
-146.0598601
40
2
50
183.0000026
51
273.0000026
0
ARC
8
0
10
83.2575693
20
-107.3792343
40
2
50
273.0000026
51
3.0000026
0
ARC
8
0
10
82.5248659
20
-93.3984209
40
2
50
3.0000026
51
93.0000026
0
ARC
8
0
10
68.5440525
20
-94.1311243
40
2
50
93.0000026
51
183.0000026
0
ARC
8
0
10
69.2767559
20
-108.1119377
40
2
50
183.0000026
51
273.0000026
0
ARC
8
0
10
184.7622689
20
-192.5018775
40
2
50
239.9999999
51
329.9999999
0
ARC
8
0
10
191.7622689
20
-180.3775219
40
2
50
329.9999999
51
59.9999999
0
ARC
8
0
10
179.6379133
20
-173.3775219
40
2
50
59.9999999
51
149.9999999
0
ARC
8
0
10
172.6379133
20
-185.5018775
40
2
50
149.9999999
51
239.9999999
0
ARC
8
0
10
168.5430743
20
-183.6802368
40
2
50
255.0000021
51
345.0000021
0
ARC
8
0
10
172.1665409
20
-170.1572754
40
2
50
345.0000021
51
75.0000021
0
ARC
8
0
10
158.6435795
20
-166.5338088
40
2
50
75.0000021
51
165.0000021
0
ARC
8
0
10
155.0201129
20
-180.0567702
40
2
50
165.0000021
51
255.0000021
0
ARC
8
0
10
184.6220407
20
-150.7186405
40
2
50
345.0000021
51
75.0000021
0
ARC
8
0
10
171.0990793
20
-147.0951739
40
2
50
75.0000021
51
165.0000021
0
ARC
8
0
10
167.4756127
20
-160.6181353
40
2
50
165.0000021
51
255.0000021
0
ARC
8
0
10
180.9985741
20
-164.2416019
40
2
50
255.0000021
51
345.0000021
0
ENDSEC
0
EOF