0
SECTION
2
HEADER
9
$INSUNITS
70
4
0
ENDSEC
0
SECTION
2
TABLES
0
TABLE
2
LTYPE
0
LTYPE
72
65
70
64
2
CONTINUOUS
3
______
73
0
40
0
0
ENDTAB
0
TABLE
2
LAYER
0
ENDTAB
0
ENDSEC
0
SECTION
2
ENTITIES
0
LINE
8
0
10
-6.3551401
20
-9.4663718
11
7.6107567
21
-8.4897811
0
LINE
8
0
10
9.4663718
20
-6.3551401
11
8.4897811
21
7.6107567
0
LINE
8
0
10
6.3551401
20
9.4663718
11
-7.6107567
21
8.4897811
0
LINE
8
0
10
-9.4663718
20
6.3551401
11
-8.4897811
21
-7.6107567
0
LINE
8
0
10
-7.6805131
20
9.4873452
11
6.2853837
21
10.4639359
0
LINE
8
0
10
8.1409988
20
12.5985769
11
7.1644081
21
26.5644737
0
LINE
8
0
10
5.0297671
20
28.4200888
11
-8.9361297
21
27.4434981
0
LINE
8
0
10
-10.7917448
20
25.3088571
11
-9.8151541
21
11.3429603
0
LINE
8
0
10
-9.0058861
20
28.4410622
11
4.9600107
21
29.4176529
0
LINE
8
0
10
6.8156258
20
31.5522939
11
5.8390351
21
45.5181907
0
LINE
8
0
10
3.7043941
20
47.3738058
11
-10.2615027
21
46.3972151
0
LINE
8
0
10
-12.1171178
20
44.2625741
11
-11.1405271
21
30.2966773
0
LINE
8
0
10
-10.3312591
20
47.3947792
11
3.6346377
21
48.3713699
0
LINE
8
0
10
5.4902528
20
50.5060109
11
4.5136621
21
64.4719077
0
LINE
8
0
10
2.3790211
20
66.3275228
11
-11.5868757
21
65.3509321
0
LINE
8
0
10
-13.4424908
20
63.2162911
11
-12.4659001
21
49.2503943
0
LINE
8
0
10
12.3645775
20
-7.0310804
11
26.3453909
21
-6.298377
0
LINE
8
0
10
28.237978
20
-4.1964459
11
27.5052746
21
9.7843675
0
LINE
8
0
10
25.4033435
20
11.6769546
11
11.4225301
21
10.9442512
0
LINE
8
0
10
9.529943
20
8.8423201
11
10.2626464
21
-5.1384933
0
LINE
8
0
10
11.3701943
20
11.9428808
11
25.3510077
21
12.6755842
0
LINE
8
0
10
27.2435948
20
14.7775153
11
26.5108914
21
28.7583287
0
LINE
8
0
10
24.4089603
20
30.6509158
11
10.4281469
21
29.9182124
0
LINE
8
0
10
8.5355598
20
27.8162813
11
9.2682632
21
13.8354679
0
LINE
8
0
10
10.3758111
20
30.916842
11
24.3566245
21
31.6495454
0
LINE
8
0
10
26.2492116
20
33.7514765
11
25.5165082
21
47.7322899
0
LINE
8
0
10
23.4145771
20
49.624877
11
9.4337637
21
48.8921736
0
LINE
8
0
10
7.5411766
20
46.7902425
11
8.27388
21
32.8094291
0
LINE
8
0
10
9.3814279
20
49.8908032
11
23.3622413
21
50.6235066
0
LINE
8
0
10
25.2548284
20
52.7254377
11
24.522125
21
66.7062511
0
LINE
8
0
10
22.4201939
20
68.5988382
11
8.4393805
21
67.8661348
0
LINE
8
0
10
6.5467934
20
65.7642037
11
7.2794968
21
51.7833903
0
LINE
8
0
10
30.8067156
20
-1.8089577
11
44.8045833
21
-1.564624
0
LINE
8
0
10
46.7693739
20
0.4699762
11
46.5250402
21
14.4678439
0
LINE
8
0
10
44.49044
20
16.4326345
11
30.4925723
21
16.1883008
0
LINE
8
0
10
28.5277817
20
14.1537006
11
28.7721154
21
0.1558329
0
LINE
8
0
10
30.4751199
20
17.1881485
11
44.4729876
21
17.4324822
0
LINE
8
0
10
46.4377782
20
19.4670824
11
46.1934445
21
33.4649501
0
LINE
8
0
10
44.1588443
20
35.4297407
11
30.1609766
21
35.185407
0
LINE
8
0
10
28.196186
20
33.1508068
11
28.4405197
21
19.1529391
0
LINE
8
0
10
30.1435242
20
36.1852547
11
44.1413919
21
36.4295884
0
LINE
8
0
10
46.1061825
20
38.4641886
11
45.8618488
21
52.4620563
0
LINE
8
0
10
43.8272486
20
54.4268469
11
29.8293809
21
54.1825132
0
LINE
8
0
10
27.8645903
20
52.147913
11
28.108924
21
38.1500453
0
LINE
8
0
10
29.8119285
20
55.1823609
11
43.8097962
21
55.4266946
0
LINE
8
0
10
45.7745868
20
57.4612948
11
45.5302531
21
71.4591625
0
LINE
8
0
10
43.4956529
20
73.4239531
11
29.4977852
21
73.1796194
0
LINE
8
0
10
27.5329946
20
71.1450192
11
27.7773283
21
57.1471515
0
LINE
8
0
10
49.5933268
20
1.6429771
11
63.5933268
21
1.6429771
0
LINE
8
0
10
65.5933268
20
3.6429771
11
65.5933268
21
17.6429771
0
LINE
8
0
10
63.5933268
20
19.6429771
11
49.5933268
21
19.6429771
0
LINE
8
0
10
47.5933268
20
17.6429771
11
47.5933268
21
3.6429771
0
LINE
8
0
10
49.5933268
20
20.6429771
11
63.5933268
21
20.6429771
0
LINE
8
0
10
65.5933268
20
22.6429771
11
65.5933268
21
36.6429771
0
LINE
8
0
10
63.5933268
20
38.6429771
11
49.5933268
21
38.6429771
0
LINE
8
0
10
47.5933268
20
36.6429771
11
47.5933268
21
22.6429771
0
LINE
8
0
10
49.5933268
20
39.6429771
11
63.5933268
21
39.6429771
0
LINE
8
0
10
65.5933268
20
41.6429771
11
65.5933268
21
55.6429771
0
LINE
8
0
10
63.5933268
20
57.6429771
11
49.5933268
21
57.6429771
0
LINE
8
0
10
47.5933268
20
55.6429771
11
47.5933268
21
41.6429771
0
LINE
8
0
10
49.5933268
20
58.6429771
11
63.5933268
21
58.6429771
0
LINE
8
0
10
65.5933268
20
60.6429771
11
65.5933268
21
74.6429771
0
LINE
8
0
10
63.5933268
20
76.6429771
11
49.5933268
21
76.6429771
0
LINE
8
0
10
47.5933268
20
74.6429771
11
47.5933268
21
60.6429771
0
LINE
8
0
10
68.5933269
20
-1.3570228
11
82.5933269
21
-1.3570228
0
LINE
8
0
10
84.5933269
20
0.6429772
11
84.5933269
21
14.6429772
0
LINE
8
0
10
82.5933269
20
16.6429772
11
68.5933269
21
16.6429772
0
LINE
8
0
10
66.5933269
20
14.6429772
11
66.5933269
21
0.6429772
0
LINE
8
0
10
68.5933269
20
17.6429772
11
82.5933269
21
17.6429772
0
LINE
8
0
10
84.5933269
20
19.6429772
11
84.5933269
21
33.6429772
0
LINE
8
0
10
82.5933269
20
35.6429772
11
68.5933269
21
35.6429772
0
LINE
8
0
10
66.5933269
20
33.6429772
11
66.5933269
21
19.6429772
0
LINE
8
0
10
68.5933269
20
36.6429772
11
82.5933269
21
36.6429772
0
LINE
8
0
10
84.5933269
20
38.6429772
11
84.5933269
21
52.6429772
0
LINE
8
0
10
82.5933269
20
54.6429772
11
68.5933269
21
54.6429772
0
LINE
8
0
10
66.5933269
20
52.6429772
11
66.5933269
21
38.6429772
0
LINE
8
0
10
68.5933269
20
55.6429772
11
82.5933269
21
55.6429772
0
LINE
8
0
10
84.5933269
20
57.6429772
11
84.5933269
21
71.6429772
0
LINE
8
0
10
82.5933269
20
73.6429772
11
68.5933269
21
73.6429772
0
LINE
8
0
10
66.5933269
20
71.6429772
11
66.5933269
21
57.6429772
0
LINE
8
0
10
87.5933269
20
-2.3570229
11
101.5933269
21
-2.3570229
0
LINE
8
0
10
103.5933269
20
-0.3570229
11
103.5933269
21
13.6429771
0
LINE
8
0
10
101.5933269
20
15.6429771
11
87.5933269
21
15.6429771
0
LINE
8
0
10
85.5933269
20
13.6429771
11
85.5933269
21
-0.3570229
0
LINE
8
0
10
87.5933269
20
16.6429771
11
101.5933269
21
16.6429771
0
LINE
8
0
10
103.5933269
20
18.6429771
11
103.5933269
21
32.6429771
0
LINE
8
0
10
101.5933269
20
34.6429771
11
87.5933269
21
34.6429771
0
LINE
8
0
10
85.5933269
20
32.6429771
11
85.5933269
21
18.6429771
0
LINE
8
0
10
87.5933269
20
35.6429771
11
101.5933269
21
35.6429771
0
LINE
8
0
10
103.5933269
20
37.6429771
11
103.5933269
21
51.6429771
0
LINE
8
0
10
101.5933269
20
53.6429771
11
87.5933269
21
53.6429771
0
LINE
8
0
10
85.5933269
20
51.6429771
11
85.5933269
21
37.6429771
0
LINE
8
0
10
87.5933269
20
54.6429771
11
101.5933269
21
54.6429771
0
LINE
8
0
10
103.5933269
20
56.6429771
11
103.5933269
21
70.6429771
0
LINE
8
0
10
101.5933269
20
72.6429771
11
87.5933269
21
72.6429771
0
LINE
8
0
10
85.5933269
20
70.6429771
11
85.5933269
21
56.6429771
0
LINE
8
0
10
76.5933269
20
-21.3570228
11
90.5933269
21
-21.3570228
0
LINE
8
0
10
92.5933269
20
-19.3570228
11
92.5933269
21
-5.3570228
0
LINE
8
0
10
90.5933269
20
-3.3570228
11
76.5933269
21
-3.3570228
0
LINE
8
0
10
74.5933269
20
-5.3570228
11
74.5933269
21
-19.3570228
0
LINE
8
0
10
94.5024749
20
-21.9886219
11
108.0254363
21
-25.6120885
0
LINE
8
0
10
110.474926
20
-24.1978748
11
114.0983926
21
-10.6749134
0
LINE
8
0
10
112.6841789
20
-8.2254237
11
99.1612175
21
-4.6019571
0
LINE
8
0
10
96.7117278
20
-6.0161708
11
93.0882612
21
-19.5391322
0
LINE
8
0
10
111.6379133
20
-27.2339283
11
123.7622689
21
-34.2339283
0
LINE
8
0
10
126.4943197
20
-33.5018775
11
133.4943197
21
-21.3775219
0
LINE
8
0
10
132.7622689
20
-18.6454711
11
120.6379133
21
-11.6454711
0
LINE
8
0
10
117.9058625
20
-12.3775219
11
110.9058625
21
-24.5018775
0
LINE
8
0
10
122.9304258
20
-4.7592399
11
126.5538924
21
8.7637215
0
LINE
8
0
10
125.1396787
20
11.2132112
11
111.6167173
21
14.8366778
0
LINE
8
0
10
109.1672276
20
13.4224641
11
105.543761
21
-0.1004973
0
LINE
8
0
10
106.9579747
20
-2.549987
11
120.4809361
21
-6.1734536
0
ARC
8
0
10
63.5933268
20
3.6429771
40
2
50
270
51
0
0
ARC
8
0
10
63.5933268
20
17.6429771
40
2
50
0
51
90
0
ARC
8
0
10
49.5933268
20
17.6429771
40
2
50
90
51
180
0
ARC
8
0
10
49.5933268
20
3.6429771
40
2
50
180
51
270
0
ARC
8
0
10
63.5933268
20
22.6429771
40
2
50
270
51
0
0
ARC
8
0
10
63.5933268
20
36.6429771
40
2
50
0
51
90
0
ARC
8
0
10
49.5933268
20
36.6429771
40
2
50
90
51
180
0
ARC
8
0
10
49.5933268
20
22.6429771
40
2
50
180
51
270
0
ARC
8
0
10
63.5933268
20
41.6429771
40
2
50
270
51
0
0
ARC
8
0
10
63.5933268
20
55.6429771
40
2
50
0
51
90
0
ARC
8
0
10
49.5933268
20
55.6429771
40
2
50
90
51
180
0
ARC
8
0
10
49.5933268
20
41.6429771
40
2
50
180
51
270
0
ARC
8
0
10
63.5933268
20
60.6429771
40
2
50
270
51
0
0
ARC
8
0
10
63.5933268
20
74.6429771
40
2
50
0
51
90
0
ARC
8
0
10
49.5933268
20
74.6429771
40
2
50
90
51
180
0
ARC
8
0
10
49.5933268
20
60.6429771
40
2
50
180
51
270
0
ARC
8
0
10
82.5933269
20
0.6429772
40
2
50
270
51
0
0
ARC
8
0
10
82.5933269
20
14.6429772
40
2
50
0
51
90
0
ARC
8
0
10
68.5933269
20
14.6429772
40
2
50
90
51
180
0
ARC
8
0
10
68.5933269
20
0.6429772
40
2
50
180
51
270
0
ARC
8
0
10
82.5933269
20
19.6429772
40
2
50
270
51
0
0
ARC
8
0
10
82.5933269
20
33.6429772
40
2
50
0
51
90
0
ARC
8
0
10
68.5933269
20
33.6429772
40
2
50
90
51
180
0
ARC
8
0
10
68.5933269
20
19.6429772
40
2
50
180
51
270
0
ARC
8
0
10
82.5933269
20
38.6429772
40
2
50
270
51
0
0
ARC
8
0
10
82.5933269
20
52.6429772
40
2
50
0
51
90
0
ARC
8
0
10
68.5933269
20
52.6429772
40
2
50
90
51
180
0
ARC
8
0
10
68.5933269
20
38.6429772
40
2
50
180
51
270
0
ARC
8
0
10
82.5933269
20
57.6429772
40
2
50
270
51
0
0
ARC
8
0
10
82.5933269
20
71.6429772
40
2
50
0
51
90
0
ARC
8
0
10
68.5933269
20
71.6429772
40
2
50
90
51
180
0
ARC
8
0
10
68.5933269
20
57.6429772
40
2
50
180
51
270
0
ARC
8
0
10
101.5933269
20
-0.3570229
40
2
50
270
51
0
0
ARC
8
0
10
101.5933269
20
13.6429771
40
2
50
0
51
90
0
ARC
8
0
10
87.5933269
20
13.6429771
40
2
50
90
51
180
0
ARC
8
0
10
87.5933269
20
-0.3570229
40
2
50
180
51
270
0
ARC
8
0
10
101.5933269
20
18.6429771
40
2
50
270
51
0
0
ARC
8
0
10
101.5933269
20
32.6429771
40
2
50
0
51
90
0
ARC
8
0
10
87.5933269
20
32.6429771
40
2
50
90
51
180
0
ARC
8
0
10
87.5933269
20
18.6429771
40
2
50
180
51
270
0
ARC
8
0
10
101.5933269
20
37.6429771
40
2
50
270
51
0
0
ARC
8
0
10
101.5933269
20
51.6429771
40
2
50
0
51
90
0
ARC
8
0
10
87.5933269
20
51.6429771
40
2
50
90
51
180
0
ARC
8
0
10
87.5933269
20
37.6429771
40
2
50
180
51
270
0
ARC
8
0
10
101.5933269
20
56.6429771
40
2
50
270
51
0
0
ARC
8
0
10
101.5933269
20
70.6429771
40
2
50
0
51
90
0
ARC
8
0
10
87.5933269
20
70.6429771
40
2
50
90
51
180
0
ARC
8
0
10
87.5933269
20
56.6429771
40
2
50
180
51
270
0
ARC
8
0
10
90.5933269
20
-19.3570228
40
2
50
270
51
0
0
ARC
8
0
10
90.5933269
20
-5.3570228
40
2
50
0
51
90
0
ARC
8
0
10
76.5933269
20
-5.3570228
40
2
50
90
51
180
0
ARC
8
0
10
76.5933269
20
-19.3570228
40
2
50
180
51
270
0
ARC
8
0
10
3.4951247
20
50.366498
40
2
50
274.0000013
51
4.0000013
0
ARC
8
0
10
2.518534
20
64.3323947
40
2
50
4.0000013
51
94.0000013
0
ARC
8
0
10
-11.4473627
20
63.355804
40
2
50
94.0000013
51
184.0000013
0
ARC
8
0
10
-10.470772
20
49.3899073
40
2
50
184.0000013
51
274.0000013
0
ARC
8
0
10
7.4712437
20
-6.494653
40
2
50
274.0000013
51
4.0000013
0
ARC
8
0
10
6.494653
20
7.4712437
40
2
50
4.0000013
51
94.0000013
0
ARC
8
0
10
-7.4712437
20
6.494653
40
2
50
94.0000013
51
184.0000013
0
ARC
8
0
10
-6.494653
20
-7.4712437
40
2
50
184.0000013
51
274.0000013
0
ARC
8
0
10
6.1458707
20
12.459064
40
2
50
274.0000013
51
4.0000013
0
ARC
8
0
10
5.16928
20
26.4249607
40
2
50
4.0000013
51
94.0000013
0
ARC
8
0
10
-8.7966167
20
25.44837
40
2
50
94.0000013
51
184.0000013
0
ARC
8
0
10
-7.820026
20
11.4824733
40
2
50
184.0000013
51
274.0000013
0
ARC
8
0
10
4.8204977
20
31.412781
40
2
50
274.0000013
51
4.0000013
0
ARC
8
0
10
3.843907
20
45.3786777
40
2
50
4.0000013
51
94.0000013
0
ARC
8
0
10
-10.1219897
20
44.402087
40
2
50
94.0000013
51
184.0000013
0
ARC
8
0
10
-9.145399
20
30.4361903
40
2
50
184.0000013
51
274.0000013
0
ARC
8
0
10
44.7696785
20
0.4350714
40
2
50
270.9999996
51
0.9999996
0
ARC
8
0
10
44.5253448
20
14.4329391
40
2
50
0.9999996
51
90.9999996
0
ARC
8
0
10
30.5274771
20
14.1886054
40
2
50
90.9999996
51
180.9999996
0
ARC
8
0
10
30.7718108
20
0.1907377
40
2
50
180.9999996
51
270.9999996
0
ARC
8
0
10
44.4380828
20
19.4321776
40
2
50
270.9999996
51
0.9999996
0
ARC
8
0
10
44.1937491
20
33.4300453
40
2
50
0.9999996
51
90.9999996
0
ARC
8
0
10
30.1958814
20
33.1857116
40
2
50
90.9999996
51
180.9999996
0
ARC
8
0
10
30.4402151
20
19.1878439
40
2
50
180.9999996
51
270.9999996
0
ARC
8
0
10
44.1064871
20
38.4292838
40
2
50
270.9999996
51
0.9999996
0
ARC
8
0
10
43.8621534
20
52.4271515
40
2
50
0.9999996
51
90.9999996
0
ARC
8
0
10
29.8642857
20
52.1828178
40
2
50
90.9999996
51
180.9999996
0
ARC
8
0
10
30.1086194
20
38.1849501
40
2
50
180.9999996
51
270.9999996
0
ARC
8
0
10
43.7748914
20
57.42639
40
2
50
270.9999996
51
0.9999996
0
ARC
8
0
10
43.5305577
20
71.4242577
40
2
50
0.9999996
51
90.9999996
0
ARC
8
0
10
29.53269
20
71.179924
40
2
50
90.9999996
51
180.9999996
0
ARC
8
0
10
29.7770237
20
57.1820563
40
2
50
180.9999996
51
270.9999996
0
ARC
8
0
10
26.2407189
20
-4.3011179
40
2
50
273.0000026
51
3.0000026
0
ARC
8
0
10
25.5080155
20
9.6796955
40
2
50
3.0000026
51
93.0000026
0
ARC
8
0
10
11.5272021
20
8.9469921
40
2
50
93.0000026
51
183.0000026
0
ARC
8
0
10
12.2599055
20
-5.0338213
40
2
50
183.0000026
51
273.0000026
0
ARC
8
0
10
25.2463357
20
14.6728433
40
2
50
273.0000026
51
3.0000026
0
ARC
8
0
10
24.5136323
20
28.6536567
40
2
50
3.0000026
51
93.0000026
0
ARC
8
0
10
10.5328189
20
27.9209533
40
2
50
93.0000026
51
183.0000026
0
ARC
8
0
10
11.2655223
20
13.9401399
40
2
50
183.0000026
51
273.0000026
0
ARC
8
0
10
24.2519525
20
33.6468045
40
2
50
273.0000026
51
3.0000026
0
ARC
8
0
10
23.5192491
20
47.6276179
40
2
50
3.0000026
51
93.0000026
0
ARC
8
0
10
9.5384357
20
46.8949145
40
2
50
93.0000026
51
183.0000026
0
ARC
8
0
10
10.2711391
20
32.9141011
40
2
50
183.0000026
51
273.0000026
0
ARC
8
0
10
23.2575693
20
52.6207657
40
2
50
273.0000026
51
3.0000026
0
ARC
8
0
10
22.5248659
20
66.6015791
40
2
50
3.0000026
51
93.0000026
0
ARC
8
0
10
8.5440525
20
65.8688757
40
2
50
93.0000026
51
183.0000026
0
ARC
8
0
10
9.2767559
20
51.8880623
40
2
50
183.0000026
51
273.0000026
0
ARC
8
0
10
124.7622689
20
-32.5018775
40
2
50
239.9999999
51
329.9999999
0
ARC
8
0
10
131.7622689
20
-20.3775219
40
2
50
329.9999999
51
59.9999999
0
ARC
8
0
10
119.6379133
20
-13.3775219
40
2
50
59.9999999
51
149.9999999
0
ARC
8
0
10
112.6379133
20
-25.5018775
40
2
50
149.9999999
51
239.9999999
0
ARC
8
0
10
108.5430743
20
-23.6802368
40
2
50
255.0000021
51
345.0000021
0
ARC
8
0
10
112.1665409
20
-10.1572754
40
2
50
345.0000021
51
75.0000021
0
ARC
8
0
10
98.6435795
20
-6.5338088
40
2
50
75.0000021
51
165.0000021
0
ARC
8
0
10
95.0201129
20
-20.0567702
40
2
50
165.0000021
51
255.0000021
0
ARC
8
0
10
124.6220407
20
9.2813595
40
2
50
345.0000021
51
75.0000021
0
ARC
8
0
10
111.0990793
20
12.9048261
40
2
50
75.0000021
51
165.0000021
0
ARC
8
0
10
107.4756127
20
-0.6181353
40
2
50
165.0000021
51
255.0000021
0
ARC
8
0
10
120.9985741
20
-4.2416019
40
2
50
255.0000021
51
345.0000021
0
ENDSEC
0
EOF