0
SECTION
2
HEADER
9
$INSUNITS
70
4
0
ENDSEC
0
SECTION
2
TABLES
0
TABLE
2
LTYPE
0
LTYPE
72
65
70
64
2
CONTINUOUS
3
______
73
0
40
0
0
ENDTAB
0
TABLE
2
LAYER
0
ENDTAB
0
ENDSEC
0
SECTION
2
ENTITIES
0
LINE
8
0
10
163.6763269
20
-179.5695542
11
163.6763269
21
-108.7220464
0
LINE
8
0
10
164.4263269
20
-180.0025669
11
164.7063269
21
-179.8409089
0
LINE
8
0
10
164.1763269
20
-108.7220229
11
183.9263269
21
-108.7220229
0
LINE
8
0
10
184.4263269
20
-168.8943478
11
184.4263269
21
-109.2220229
0
LINE
8
0
10
164.7063269
20
-180.5683702
11
164.7063269
21
-179.8409089
0
LINE
8
0
10
164.7063269
20
-180.5683702
11
184.1763269
21
-169.3273605
0
ARC
8
0
10
164.1763269
20
-179.5695542
40
0.5
50
180
51
540
0
ARC
8
0
10
183.9263269
20
-168.8943478
40
0.5
50
300.0000001
51
660.0000001
0
ARC
8
0
10
183.9263269
20
-109.2220229
40
0.5
50
0
51
360
0
ARC
8
0
10
164.1763269
20
-109.2220229
40
0.5
50
90
51
450
0
CIRCLE
8
0
10
167.3553269
20
-156.2080229
40
1.1
0
CIRCLE
8
0
10
181.7873269
20
-164.7270229
40
1.1
0
LINE
8
0
10
51.1546915
20
-169.6390566
11
46.5276881
21
-95.264636
0
LINE
8
0
10
46.9882014
20
-94.7350759
11
87.1911622
21
-91.6284567
0
LINE
8
0
10
87.6525641
20
-91.1212166
11
87.5863012
21
-87.3250174
0
LINE
8
0
10
88.0583549
20
-86.8170685
11
107.2011969
21
-85.7483805
0
LINE
8
0
10
107.6733268
20
-85.2491578
11
107.6733268
21
-83.9700229
0
LINE
8
0
10
108.1733268
20
-83.4700229
11
125.1753268
21
-83.4700229
0
LINE
8
0
10
125.6753268
20
-83.9700229
11
125.6753268
21
-85.2381998
0
LINE
8
0
10
126.1588883
20
-85.7379295
11
144.1917654
21
-86.3311162
0
LINE
8
0
10
144.6753269
20
-86.8308459
11
144.6753269
21
-88.307531
0
LINE
8
0
10
145.2114167
20
-88.8062268
11
146.5933269
21
-88.7062202
0
LINE
8
0
10
151.4185987
20
-88.3570229
11
163.1392623
21
-87.508817
0
LINE
8
0
10
163.6753522
20
-88.0074893
11
163.6763269
21
-108.7220229
0
LINE
8
0
10
170.8856027
20
-176.2733024
11
178.156121
21
-172.0756667
0
LINE
8
0
10
177.7213895
20
-171.1780312
11
168.4471063
21
-174.8654358
0
LINE
8
0
10
156.8950177
20
-179.4584833
11
152.4702203
21
-181.2177587
0
LINE
8
0
10
155.3208711
20
-170.5789853
11
156.5992731
21
-168.3647281
0
LINE
8
0
10
156.0099074
20
-167.6398031
11
154.5996615
21
-168.104079
0
LINE
8
0
10
120.4186572
20
-179.3570229
11
117.5438808
21
-180.3034462
0
LINE
8
0
10
137.9509659
20
-173.5851011
11
134.0933268
21
-174.8550987
0
LINE
8
0
10
116.6486419
20
-179.7584146
11
106.8937804
21
-166.738495
0
LINE
8
0
10
106.4611346
20
-166.5393539
11
51.6862238
21
-170.1069532
0
ARC
8
0
10
47.0267233
20
-95.2335898
40
0.5
50
94.4186576
51
104.8390961
0
ARC
8
0
10
47.0267233
20
-95.2335898
40
0.5
50
178.1475798
51
183.5599168
0
ARC
8
0
10
87.1526403
20
-91.1299428
40
0.5
50
274.4186576
51
0.9999996
0
ARC
8
0
10
88.086225
20
-87.3162912
40
0.5
50
93.1953343
51
180.9999996
0
ARC
8
0
10
107.1733268
20
-85.2491578
40
0.5
50
273.1953343
51
0
0
ARC
8
0
10
108.1733268
20
-83.9700229
40
0.5
50
90
51
180
0
ARC
8
0
10
125.1753268
20
-83.9700229
40
0.5
50
0
51
90
0
ARC
8
0
10
126.1753268
20
-85.2381998
40
0.5
50
180
51
268.1159529
0
ARC
8
0
10
144.1753269
20
-86.8308459
40
0.5
50
0
51
88.1159529
0
ARC
8
0
10
145.1753269
20
-88.307531
40
0.5
50
180
51
274.1391918
0
ARC
8
0
10
163.1753522
20
-88.0075128
40
0.5
50
0.0026986
51
16.4575579
0
ARC
8
0
10
163.1753522
20
-88.0075128
40
0.5
50
86.3697859
51
94.1391918
0
ARC
8
0
10
163.1763269
20
-108.7220464
40
0.5
50
0
51
0.0026986
0
ARC
8
0
10
177.906121
20
-171.642654
40
0.5
50
300.0000001
51
111.6824964
0
ARC
8
0
10
156.1662604
20
-168.1147281
40
0.5
50
329.9999999
51
108.2223891
0
ARC
8
0
10
106.4936318
20
-167.0382967
40
0.5
50
36.8415064
51
93.726526
0
ARC
8
0
10
51.6537267
20
-169.6080104
40
0.5
50
183.5599168
51
273.726526
0
LINE
8
0
10
52.5775394
20
-168.5385642
11
68.5385642
21
-167.4224606
0
LINE
8
0
10
68.5385642
20
-167.4224606
11
67.4224606
21
-151.4614358
0
LINE
8
0
10
67.4224606
20
-151.4614358
11
51.4614358
21
-152.5775394
0
LINE
8
0
10
51.4614358
20
-152.5775394
11
52.5775394
21
-168.5385642
0
LINE
8
0
10
51.2521664
20
-149.5848472
11
67.2131912
21
-148.4687436
0
LINE
8
0
10
67.2131912
20
-148.4687436
11
66.0970876
21
-132.5077188
0
LINE
8
0
10
66.0970876
20
-132.5077188
11
50.1360628
21
-133.6238224
0
LINE
8
0
10
50.1360628
20
-133.6238224
11
51.2521664
21
-149.5848472
0
LINE
8
0
10
49.9267934
20
-130.6311302
11
65.8878182
21
-129.5150266
0
LINE
8
0
10
65.8878182
20
-129.5150266
11
64.7717146
21
-113.5540018
0
LINE
8
0
10
64.7717146
20
-113.5540018
11
48.8106898
21
-114.6701054
0
LINE
8
0
10
48.8106898
20
-114.6701054
11
49.9267934
21
-130.6311302
0
LINE
8
0
10
48.6014204
20
-111.6774132
11
64.5624452
21
-110.5613096
0
LINE
8
0
10
64.5624452
20
-110.5613096
11
63.4463416
21
-94.6002848
0
LINE
8
0
10
63.4463416
20
-94.6002848
11
47.4853168
21
-95.7163884
0
LINE
8
0
10
47.4853168
20
-95.7163884
11
48.6014204
21
-111.6774132
0
LINE
8
0
10
71.3136119
20
-166.0847868
11
87.2916844
21
-165.2474115
0
LINE
8
0
10
87.2916844
20
-165.2474115
11
86.4543091
21
-149.269339
0
LINE
8
0
10
86.4543091
20
-149.269339
11
70.4762366
21
-150.1067143
0
LINE
8
0
10
70.4762366
20
-150.1067143
11
71.3136119
21
-166.0847868
0
LINE
8
0
10
70.3192287
20
-147.1108256
11
86.2973012
21
-146.2734503
0
LINE
8
0
10
86.2973012
20
-146.2734503
11
85.4599259
21
-130.2953778
0
LINE
8
0
10
85.4599259
20
-130.2953778
11
69.4818534
21
-131.1327531
0
LINE
8
0
10
69.4818534
20
-131.1327531
11
70.3192287
21
-147.1108256
0
LINE
8
0
10
69.3248455
20
-128.1368644
11
85.302918
21
-127.2994891
0
LINE
8
0
10
85.302918
20
-127.2994891
11
84.4655427
21
-111.3214166
0
LINE
8
0
10
84.4655427
20
-111.3214166
11
68.4874702
21
-112.1587919
0
LINE
8
0
10
68.4874702
20
-112.1587919
11
69.3248455
21
-128.1368644
0
LINE
8
0
10
68.3304623
20
-109.1629032
11
84.3085348
21
-108.3255279
0
LINE
8
0
10
84.3085348
20
-108.3255279
11
83.4711595
21
-92.3474554
0
LINE
8
0
10
83.4711595
20
-92.3474554
11
67.493087
21
-93.1848307
0
LINE
8
0
10
67.493087
20
-93.1848307
11
68.3304623
21
-109.1629032
0
LINE
8
0
10
89.7894155
20
-160.8265624
11
105.7869786
21
-160.5473239
0
LINE
8
0
10
105.7869786
20
-160.5473239
11
105.5077401
21
-144.5497608
0
LINE
8
0
10
105.5077401
20
-144.5497608
11
89.510177
21
-144.8289993
0
LINE
8
0
10
89.510177
20
-144.8289993
11
89.7894155
21
-160.8265624
0
LINE
8
0
10
89.4578198
20
-141.8294562
11
105.4553829
21
-141.5502177
0
LINE
8
0
10
105.4553829
20
-141.5502177
11
105.1761444
21
-125.5526546
0
LINE
8
0
10
105.1761444
20
-125.5526546
11
89.1785813
21
-125.8318931
0
LINE
8
0
10
89.1785813
20
-125.8318931
11
89.4578198
21
-141.8294562
0
LINE
8
0
10
89.1262241
20
-122.83235
11
105.1237872
21
-122.5531115
0
LINE
8
0
10
105.1237872
20
-122.5531115
11
104.8445487
21
-106.5555484
0
LINE
8
0
10
104.8445487
20
-106.5555484
11
88.8469856
21
-106.8347869
0
LINE
8
0
10
88.8469856
20
-106.8347869
11
89.1262241
21
-122.83235
0
LINE
8
0
10
88.7946284
20
-103.8352438
11
104.7921915
21
-103.5560053
0
LINE
8
0
10
104.7921915
20
-103.5560053
11
104.512953
21
-87.5584422
0
LINE
8
0
10
104.512953
20
-87.5584422
11
88.5153899
21
-87.8376807
0
LINE
8
0
10
88.5153899
20
-87.8376807
11
88.7946284
21
-103.8352438
0
LINE
8
0
10
108.5933268
20
-157.3570229
11
124.5933268
21
-157.3570229
0
LINE
8
0
10
124.5933268
20
-157.3570229
11
124.5933268
21
-141.3570229
0
LINE
8
0
10
124.5933268
20
-141.3570229
11
108.5933268
21
-141.3570229
0
LINE
8
0
10
108.5933268
20
-141.3570229
11
108.5933268
21
-157.3570229
0
LINE
8
0
10
108.5933268
20
-138.3570229
11
124.5933268
21
-138.3570229
0
LINE
8
0
10
124.5933268
20
-138.3570229
11
124.5933268
21
-122.3570229
0
LINE
8
0
10
124.5933268
20
-122.3570229
11
108.5933268
21
-122.3570229
0
LINE
8
0
10
108.5933268
20
-122.3570229
11
108.5933268
21
-138.3570229
0
LINE
8
0
10
108.5933268
20
-119.3570229
11
124.5933268
21
-119.3570229
0
LINE
8
0
10
124.5933268
20
-119.3570229
11
124.5933268
21
-103.3570229
0
LINE
8
0
10
124.5933268
20
-103.3570229
11
108.5933268
21
-103.3570229
0
LINE
8
0
10
108.5933268
20
-103.3570229
11
108.5933268
21
-119.3570229
0
LINE
8
0
10
108.5933268
20
-100.3570229
11
124.5933268
21
-100.3570229
0
LINE
8
0
10
124.5933268
20
-100.3570229
11
124.5933268
21
-84.3570229
0
LINE
8
0
10
124.5933268
20
-84.3570229
11
108.5933268
21
-84.3570229
0
LINE
8
0
10
108.5933268
20
-84.3570229
11
108.5933268
21
-100.3570229
0
LINE
8
0
10
127.5933269
20
-160.3570228
11
143.5933269
21
-160.3570228
0
LINE
8
0
10
143.5933269
20
-160.3570228
11
143.5933269
21
-144.3570228
0
LINE
8
0
10
143.5933269
20
-144.3570228
11
127.5933269
21
-144.3570228
0
LINE
8
0
10
127.5933269
20
-144.3570228
11
127.5933269
21
-160.3570228
0
LINE
8
0
10
127.5933269
20
-141.3570228
11
143.5933269
21
-141.3570228
0
LINE
8
0
10
143.5933269
20
-141.3570228
11
143.5933269
21
-125.3570228
0
LINE
8
0
10
143.5933269
20
-125.3570228
11
127.5933269
21
-125.3570228
0
LINE
8
0
10
127.5933269
20
-125.3570228
11
127.5933269
21
-141.3570228
0
LINE
8
0
10
127.5933269
20
-122.3570228
11
143.5933269
21
-122.3570228
0
LINE
8
0
10
143.5933269
20
-122.3570228
11
143.5933269
21
-106.3570228
0
LINE
8
0
10
143.5933269
20
-106.3570228
11
127.5933269
21
-106.3570228
0
LINE
8
0
10
127.5933269
20
-106.3570228
11
127.5933269
21
-122.3570228
0
LINE
8
0
10
127.5933269
20
-103.3570228
11
143.5933269
21
-103.3570228
0
LINE
8
0
10
143.5933269
20
-103.3570228
11
143.5933269
21
-87.3570228
0
LINE
8
0
10
143.5933269
20
-87.3570228
11
127.5933269
21
-87.3570228
0
LINE
8
0
10
127.5933269
20
-87.3570228
11
127.5933269
21
-103.3570228
0
LINE
8
0
10
146.5933269
20
-161.3570229
11
162.5933269
21
-161.3570229
0
LINE
8
0
10
162.5933269
20
-161.3570229
11
162.5933269
21
-145.3570229
0
LINE
8
0
10
162.5933269
20
-145.3570229
11
146.5933269
21
-145.3570229
0
LINE
8
0
10
146.5933269
20
-145.3570229
11
146.5933269
21
-161.3570229
0
LINE
8
0
10
146.5933269
20
-142.3570229
11
162.5933269
21
-142.3570229
0
LINE
8
0
10
162.5933269
20
-142.3570229
11
162.5933269
21
-126.3570229
0
LINE
8
0
10
162.5933269
20
-126.3570229
11
146.5933269
21
-126.3570229
0
LINE
8
0
10
146.5933269
20
-126.3570229
11
146.5933269
21
-142.3570229
0
LINE
8
0
10
146.5933269
20
-123.3570229
11
162.5933269
21
-123.3570229
0
LINE
8
0
10
162.5933269
20
-123.3570229
11
162.5933269
21
-107.3570229
0
LINE
8
0
10
162.5933269
20
-107.3570229
11
146.5933269
21
-107.3570229
0
LINE
8
0
10
146.5933269
20
-107.3570229
11
146.5933269
21
-123.3570229
0
LINE
8
0
10
146.5933269
20
-104.3570229
11
162.5933269
21
-104.3570229
0
LINE
8
0
10
162.5933269
20
-104.3570229
11
162.5933269
21
-88.3570229
0
LINE
8
0
10
162.5933269
20
-88.3570229
11
151.4185987
21
-88.3570229
0
LINE
8
0
10
146.5933269
20
-88.7062202
11
146.5933269
21
-104.3570229
0
LINE
8
0
10
118.0933268
20
-179.3570229
11
120.4186572
21
-179.3570229
0
LINE
8
0
10
134.0933268
20
-174.8550987
11
134.0933268
21
-163.3570229
0
LINE
8
0
10
134.0933268
20
-163.3570229
11
118.0933268
21
-163.3570229
0
LINE
8
0
10
118.0933268
20
-163.3570229
11
118.0933268
21
-179.3570229
0
LINE
8
0
10
152.4702203
20
-181.2177587
11
155.3208711
21
-170.5789853
0
LINE
8
0
10
154.5996615
20
-168.104079
11
140.4364726
21
-164.3090639
0
LINE
8
0
10
140.4364726
20
-164.3090639
11
137.9509659
21
-173.5851011
0
LINE
8
0
10
163.6763269
20
-172.111025
11
161.7718878
21
-171.0114966
0
LINE
8
0
10
170.8856027
20
-176.2733024
11
168.4471063
21
-174.8654358
0
LINE
8
0
10
161.7718878
20
-171.0114966
11
156.8950177
21
-179.4584833
0
ARC
8
0
10
45.884336
20
-94.324677
40
1.1
50
305.7483245
51
337.2383447
0
CIRCLE
8
0
10
69.8941715
20
-167.6612351
40
1.1
0
ARC
8
0
10
164.0933269
20
-86.8570229
40
1.1
50
216.3180165
51
246.5093238
0
ARC
8
0
10
116.5933268
20
-180.8570229
40
1.1
50
30.2153537
51
87.1175827
0
LINE
8
0
10
164.7063269
20
-179.7023448
11
164.7063269
21
-109.2220229
0
ARC
8
0
10
165.2063269
20
-109.2220229
40
0.5
50
90
51
180
0
ARC
8
0
10
165.2063269
20
-179.7023448
40
0.5
50
180
51
300.0000001
0
LINE
8
0
10
53.6448599
20
-169.4663718
11
67.6107567
21
-168.4897811
0
LINE
8
0
10
69.4663718
20
-166.3551401
11
68.4897811
21
-152.3892433
0
LINE
8
0
10
66.3551401
20
-150.5336282
11
52.3892433
21
-151.5102189
0
LINE
8
0
10
50.5336282
20
-153.6448599
11
51.5102189
21
-167.6107567
0
LINE
8
0
10
52.3194869
20
-150.5126548
11
66.2853837
21
-149.5360641
0
LINE
8
0
10
68.1409988
20
-147.4014231
11
67.1644081
21
-133.4355263
0
LINE
8
0
10
65.0297671
20
-131.5799112
11
51.0638703
21
-132.5565019
0
LINE
8
0
10
49.2082552
20
-134.6911429
11
50.1848459
21
-148.6570397
0
LINE
8
0
10
50.9941139
20
-131.5589378
11
64.9600107
21
-130.5823471
0
LINE
8
0
10
66.8156258
20
-128.4477061
11
65.8390351
21
-114.4818093
0
LINE
8
0
10
63.7043941
20
-112.6261942
11
49.7384973
21
-113.6027849
0
LINE
8
0
10
47.8828822
20
-115.7374259
11
48.8594729
21
-129.7033227
0
LINE
8
0
10
49.6687409
20
-112.6052208
11
63.6346377
21
-111.6286301
0
LINE
8
0
10
65.4902528
20
-109.4939891
11
64.5136621
21
-95.5280923
0
LINE
8
0
10
62.3790211
20
-93.6724772
11
48.4131243
21
-94.6490679
0
LINE
8
0
10
46.5575092
20
-96.7837089
11
47.5340999
21
-110.7496057
0
LINE
8
0
10
72.3645775
20
-167.0310804
11
86.3453909
21
-166.298377
0
LINE
8
0
10
88.237978
20
-164.1964459
11
87.5052746
21
-150.2156325
0
LINE
8
0
10
85.4033435
20
-148.3230454
11
71.4225301
21
-149.0557488
0
LINE
8
0
10
69.529943
20
-151.1576799
11
70.2626464
21
-165.1384933
0
LINE
8
0
10
71.3701943
20
-148.0571192
11
85.3510077
21
-147.3244158
0
LINE
8
0
10
87.2435948
20
-145.2224847
11
86.5108914
21
-131.2416713
0
LINE
8
0
10
84.4089603
20
-129.3490842
11
70.4281469
21
-130.0817876
0
LINE
8
0
10
68.5355598
20
-132.1837187
11
69.2682632
21
-146.1645321
0
LINE
8
0
10
70.3758111
20
-129.083158
11
84.3566245
21
-128.3504546
0
LINE
8
0
10
86.2492116
20
-126.2485235
11
85.5165082
21
-112.2677101
0
LINE
8
0
10
83.4145771
20
-110.375123
11
69.4337637
21
-111.1078264
0
LINE
8
0
10
67.5411766
20
-113.2097575
11
68.27388
21
-127.1905709
0
LINE
8
0
10
69.3814279
20
-110.1091968
11
83.3622413
21
-109.3764934
0
LINE
8
0
10
85.2548284
20
-107.2745623
11
84.522125
21
-93.2937489
0
LINE
8
0
10
82.4201939
20
-91.4011618
11
68.4393805
21
-92.1338652
0
LINE
8
0
10
66.5467934
20
-94.2357963
11
67.2794968
21
-108.2166097
0
LINE
8
0
10
90.8067156
20
-161.8089577
11
104.8045833
21
-161.564624
0
LINE
8
0
10
106.7693739
20
-159.5300238
11
106.5250402
21
-145.5321561
0
LINE
8
0
10
104.49044
20
-143.5673655
11
90.4925723
21
-143.8116992
0
LINE
8
0
10
88.5277817
20
-145.8462994
11
88.7721154
21
-159.8441671
0
LINE
8
0
10
90.4751199
20
-142.8118515
11
104.4729876
21
-142.5675178
0
LINE
8
0
10
106.4377782
20
-140.5329176
11
106.1934445
21
-126.5350499
0
LINE
8
0
10
104.1588443
20
-124.5702593
11
90.1609766
21
-124.814593
0
LINE
8
0
10
88.196186
20
-126.8491932
11
88.4405197
21
-140.8470609
0
LINE
8
0
10
90.1435242
20
-123.8147453
11
104.1413919
21
-123.5704116
0
LINE
8
0
10
106.1061825
20
-121.5358114
11
105.8618488
21
-107.5379437
0
LINE
8
0
10
103.8272486
20
-105.5731531
11
89.8293809
21
-105.8174868
0
LINE
8
0
10
87.8645903
20
-107.852087
11
88.108924
21
-121.8499547
0
LINE
8
0
10
89.8119285
20
-104.8176391
11
103.8097962
21
-104.5733054
0
LINE
8
0
10
105.7745868
20
-102.5387052
11
105.5302531
21
-88.5408375
0
LINE
8
0
10
103.4956529
20
-86.5760469
11
89.4977852
21
-86.8203806
0
LINE
8
0
10
87.5329946
20
-88.8549808
11
87.7773283
21
-102.8528485
0
LINE
8
0
10
109.5933268
20
-158.3570229
11
123.5933268
21
-158.3570229
0
LINE
8
0
10
125.5933268
20
-156.3570229
11
125.5933268
21
-142.3570229
0
LINE
8
0
10
123.5933268
20
-140.3570229
11
109.5933268
21
-140.3570229
0
LINE
8
0
10
107.5933268
20
-142.3570229
11
107.5933268
21
-156.3570229
0
LINE
8
0
10
109.5933268
20
-139.3570229
11
123.5933268
21
-139.3570229
0
LINE
8
0
10
125.5933268
20
-137.3570229
11
125.5933268
21
-123.3570229
0
LINE
8
0
10
123.5933268
20
-121.3570229
11
109.5933268
21
-121.3570229
0
LINE
8
0
10
107.5933268
20
-123.3570229
11
107.5933268
21
-137.3570229
0
LINE
8
0
10
109.5933268
20
-120.3570229
11
123.5933268
21
-120.3570229
0
LINE
8
0
10
125.5933268
20
-118.3570229
11
125.5933268
21
-104.3570229
0
LINE
8
0
10
123.5933268
20
-102.3570229
11
109.5933268
21
-102.3570229
0
LINE
8
0
10
107.5933268
20
-104.3570229
11
107.5933268
21
-118.3570229
0
LINE
8
0
10
109.5933268
20
-101.3570229
11
123.5933268
21
-101.3570229
0
LINE
8
0
10
125.5933268
20
-99.3570229
11
125.5933268
21
-85.3570229
0
LINE
8
0
10
123.5933268
20
-83.3570229
11
109.5933268
21
-83.3570229
0
LINE
8
0
10
107.5933268
20
-85.3570229
11
107.5933268
21
-99.3570229
0
LINE
8
0
10
128.5933269
20
-161.3570228
11
142.5933269
21
-161.3570228
0
LINE
8
0
10
144.5933269
20
-159.3570228
11
144.5933269
21
-145.3570228
0
LINE
8
0
10
142.5933269
20
-143.3570228
11
128.5933269
21
-143.3570228
0
LINE
8
0
10
126.5933269
20
-145.3570228
11
126.5933269
21
-159.3570228
0
LINE
8
0
10
128.5933269
20
-142.3570228
11
142.5933269
21
-142.3570228
0
LINE
8
0
10
144.5933269
20
-140.3570228
11
144.5933269
21
-126.3570228
0
LINE
8
0
10
142.5933269
20
-124.3570228
11
128.5933269
21
-124.3570228
0
LINE
8
0
10
126.5933269
20
-126.3570228
11
126.5933269
21
-140.3570228
0
LINE
8
0
10
128.5933269
20
-123.3570228
11
142.5933269
21
-123.3570228
0
LINE
8
0
10
144.5933269
20
-121.3570228
11
144.5933269
21
-107.3570228
0
LINE
8
0
10
142.5933269
20
-105.3570228
11
128.5933269
21
-105.3570228
0
LINE
8
0
10
126.5933269
20
-107.3570228
11
126.5933269
21
-121.3570228
0
LINE
8
0
10
128.5933269
20
-104.3570228
11
142.5933269
21
-104.3570228
0
LINE
8
0
10
144.5933269
20
-102.3570228
11
144.5933269
21
-88.3570228
0
LINE
8
0
10
142.5933269
20
-86.3570228
11
128.5933269
21
-86.3570228
0
LINE
8
0
10
126.5933269
20
-88.3570228
11
126.5933269
21
-102.3570228
0
LINE
8
0
10
147.5933269
20
-162.3570229
11
161.5933269
21
-162.3570229
0
LINE
8
0
10
163.5933269
20
-160.3570229
11
163.5933269
21
-146.3570229
0
LINE
8
0
10
161.5933269
20
-144.3570229
11
147.5933269
21
-144.3570229
0
LINE
8
0
10
145.5933269
20
-146.3570229
11
145.5933269
21
-160.3570229
0
LINE
8
0
10
147.5933269
20
-143.3570229
11
161.5933269
21
-143.3570229
0
LINE
8
0
10
163.5933269
20
-141.3570229
11
163.5933269
21
-127.3570229
0
LINE
8
0
10
161.5933269
20
-125.3570229
11
147.5933269
21
-125.3570229
0
LINE
8
0
10
145.5933269
20
-127.3570229
11
145.5933269
21
-141.3570229
0
LINE
8
0
10
147.5933269
20
-124.3570229
11
161.5933269
21
-124.3570229
0
LINE
8
0
10
163.5933269
20
-122.3570229
11
163.5933269
21
-108.3570229
0
LINE
8
0
10
161.5933269
20
-106.3570229
11
147.5933269
21
-106.3570229
0
LINE
8
0
10
145.5933269
20
-108.3570229
11
145.5933269
21
-122.3570229
0
LINE
8
0
10
147.5933269
20
-105.3570229
11
161.5933269
21
-105.3570229
0
LINE
8
0
10
163.5933269
20
-103.3570229
11
163.5933269
21
-89.3570229
0
LINE
8
0
10
161.5933269
20
-87.3570229
11
147.5933269
21
-87.3570229
0
LINE
8
0
10
145.5933269
20
-89.3570229
11
145.5933269
21
-103.3570229
0
LINE
8
0
10
119.0933268
20
-180.3570229
11
133.0933268
21
-180.3570229
0
LINE
8
0
10
135.0933268
20
-178.3570229
11
135.0933268
21
-164.3570229
0
LINE
8
0
10
133.0933268
20
-162.3570229
11
119.0933268
21
-162.3570229
0
LINE
8
0
10
117.0933268
20
-164.3570229
11
117.0933268
21
-178.3570229
0
LINE
8
0
10
137.0024748
20
-180.988622
11
150.5254362
21
-184.6120886
0
LINE
8
0
10
152.9749259
20
-183.1978749
11
156.5983925
21
-169.6749135
0
LINE
8
0
10
155.1841788
20
-167.2254238
11
141.6612174
21
-163.6019572
0
LINE
8
0
10
139.2117277
20
-165.0161709
11
135.5882611
21
-178.5391323
0
LINE
8
0
10
154.1379132
20
-186.2339284
11
166.2622688
21
-193.2339284
0
LINE
8
0
10
168.9943196
20
-192.5018776
11
175.9943196
21
-180.377522
0
LINE
8
0
10
175.2622688
20
-177.6454712
11
163.1379132
21
-170.6454712
0
LINE
8
0
10
160.4058624
20
-171.377522
11
153.4058624
21
-183.5018776
0
ARC
8
0
10
123.5933268
20
-156.3570229
40
2
50
270
51
0
0
ARC
8
0
10
123.5933268
20
-142.3570229
40
2
50
0
51
90
0
ARC
8
0
10
109.5933268
20
-142.3570229
40
2
50
90
51
180
0
ARC
8
0
10
109.5933268
20
-156.3570229
40
2
50
180
51
270
0
ARC
8
0
10
123.5933268
20
-137.3570229
40
2
50
270
51
0
0
ARC
8
0
10
123.5933268
20
-123.3570229
40
2
50
0
51
90
0
ARC
8
0
10
109.5933268
20
-123.3570229
40
2
50
90
51
180
0
ARC
8
0
10
109.5933268
20
-137.3570229
40
2
50
180
51
270
0
ARC
8
0
10
123.5933268
20
-118.3570229
40
2
50
270
51
0
0
ARC
8
0
10
123.5933268
20
-104.3570229
40
2
50
0
51
90
0
ARC
8
0
10
109.5933268
20
-104.3570229
40
2
50
90
51
180
0
ARC
8
0
10
109.5933268
20
-118.3570229
40
2
50
180
51
270
0
ARC
8
0
10
123.5933268
20
-99.3570229
40
2
50
270
51
0
0
ARC
8
0
10
123.5933268
20
-85.3570229
40
2
50
0
51
90
0
ARC
8
0
10
109.5933268
20
-85.3570229
40
2
50
90
51
180
0
ARC
8
0
10
109.5933268
20
-99.3570229
40
2
50
180
51
270
0
ARC
8
0
10
142.5933269
20
-159.3570228
40
2
50
270
51
0
0
ARC
8
0
10
142.5933269
20
-145.3570228
40
2
50
0
51
90
0
ARC
8
0
10
128.5933269
20
-145.3570228
40
2
50
90
51
180
0
ARC
8
0
10
128.5933269
20
-159.3570228
40
2
50
180
51
270
0
ARC
8
0
10
142.5933269
20
-140.3570228
40
2
50
270
51
0
0
ARC
8
0
10
142.5933269
20
-126.3570228
40
2
50
0
51
90
0
ARC
8
0
10
128.5933269
20
-126.3570228
40
2
50
90
51
180
0
ARC
8
0
10
128.5933269
20
-140.3570228
40
2
50
180
51
270
0
ARC
8
0
10
142.5933269
20
-121.3570228
40
2
50
270
51
0
0
ARC
8
0
10
142.5933269
20
-107.3570228
40
2
50
0
51
90
0
ARC
8
0
10
128.5933269
20
-107.3570228
40
2
50
90
51
180
0
ARC
8
0
10
128.5933269
20
-121.3570228
40
2
50
180
51
270
0
ARC
8
0
10
142.5933269
20
-102.3570228
40
2
50
270
51
0
0
ARC
8
0
10
142.5933269
20
-88.3570228
40
2
50
0
51
90
0
ARC
8
0
10
128.5933269
20
-88.3570228
40
2
50
90
51
180
0
ARC
8
0
10
128.5933269
20
-102.3570228
40
2
50
180
51
270
0
ARC
8
0
10
161.5933269
20
-160.3570229
40
2
50
270
51
0
0
ARC
8
0
10
161.5933269
20
-146.3570229
40
2
50
0
51
90
0
ARC
8
0
10
147.5933269
20
-146.3570229
40
2
50
90
51
180
0
ARC
8
0
10
147.5933269
20
-160.3570229
40
2
50
180
51
270
0
ARC
8
0
10
161.5933269
20
-141.3570229
40
2
50
270
51
0
0
ARC
8
0
10
161.5933269
20
-127.3570229
40
2
50
0
51
90
0
ARC
8
0
10
147.5933269
20
-127.3570229
40
2
50
90
51
180
0
ARC
8
0
10
147.5933269
20
-141.3570229
40
2
50
180
51
270
0
ARC
8
0
10
161.5933269
20
-122.3570229
40
2
50
270
51
0
0
ARC
8
0
10
161.5933269
20
-108.3570229
40
2
50
0
51
90
0
ARC
8
0
10
147.5933269
20
-108.3570229
40
2
50
90
51
180
0
ARC
8
0
10
147.5933269
20
-122.3570229
40
2
50
180
51
270
0
ARC
8
0
10
161.5933269
20
-103.3570229
40
2
50
270
51
0
0
ARC
8
0
10
161.5933269
20
-89.3570229
40
2
50
0
51
90
0
ARC
8
0
10
147.5933269
20
-89.3570229
40
2
50
90
51
180
0
ARC
8
0
10
147.5933269
20
-103.3570229
40
2
50
180
51
270
0
ARC
8
0
10
133.0933268
20
-178.3570229
40
2
50
270
51
0
0
ARC
8
0
10
133.0933268
20
-164.3570229
40
2
50
0
51
90
0
ARC
8
0
10
119.0933268
20
-164.3570229
40
2
50
90
51
180
0
ARC
8
0
10
119.0933268
20
-178.3570229
40
2
50
180
51
270
0
ARC
8
0
10
63.4951247
20
-109.633502
40
2
50
274.0000013
51
4.0000013
0
ARC
8
0
10
62.518534
20
-95.6676053
40
2
50
4.0000013
51
94.0000013
0
ARC
8
0
10
48.5526373
20
-96.644196
40
2
50
94.0000013
51
184.0000013
0
ARC
8
0
10
49.529228
20
-110.6100927
40
2
50
184.0000013
51
274.0000013
0
ARC
8
0
10
67.4712437
20
-166.494653
40
2
50
274.0000013
51
4.0000013
0
ARC
8
0
10
66.494653
20
-152.5287563
40
2
50
4.0000013
51
94.0000013
0
ARC
8
0
10
52.5287563
20
-153.505347
40
2
50
94.0000013
51
184.0000013
0
ARC
8
0
10
53.505347
20
-167.4712437
40
2
50
184.0000013
51
274.0000013
0
ARC
8
0
10
64.8204977
20
-128.587219
40
2
50
274.0000013
51
4.0000013
0
ARC
8
0
10
63.843907
20
-114.6213223
40
2
50
4.0000013
51
94.0000013
0
ARC
8
0
10
49.8780103
20
-115.597913
40
2
50
94.0000013
51
184.0000013
0
ARC
8
0
10
50.854601
20
-129.5638097
40
2
50
184.0000013
51
274.0000013
0
ARC
8
0
10
66.1458707
20
-147.540936
40
2
50
274.0000013
51
4.0000013
0
ARC
8
0
10
65.16928
20
-133.5750393
40
2
50
4.0000013
51
94.0000013
0
ARC
8
0
10
51.2033833
20
-134.55163
40
2
50
94.0000013
51
184.0000013
0
ARC
8
0
10
52.179974
20
-148.5175267
40
2
50
184.0000013
51
274.0000013
0
ARC
8
0
10
104.1064871
20
-121.5707162
40
2
50
270.9999996
51
0.9999996
0
ARC
8
0
10
103.8621534
20
-107.5728485
40
2
50
0.9999996
51
90.9999996
0
ARC
8
0
10
89.8642857
20
-107.8171822
40
2
50
90.9999996
51
180.9999996
0
ARC
8
0
10
90.1086194
20
-121.8150499
40
2
50
180.9999996
51
270.9999996
0
ARC
8
0
10
103.7748914
20
-102.57361
40
2
50
270.9999996
51
0.9999996
0
ARC
8
0
10
103.5305577
20
-88.5757423
40
2
50
0.9999996
51
90.9999996
0
ARC
8
0
10
89.53269
20
-88.820076
40
2
50
90.9999996
51
180.9999996
0
ARC
8
0
10
89.7770237
20
-102.8179437
40
2
50
180.9999996
51
270.9999996
0
ARC
8
0
10
104.4380828
20
-140.5678224
40
2
50
270.9999996
51
0.9999996
0
ARC
8
0
10
104.1937491
20
-126.5699547
40
2
50
0.9999996
51
90.9999996
0
ARC
8
0
10
90.1958814
20
-126.8142884
40
2
50
90.9999996
51
180.9999996
0
ARC
8
0
10
90.4402151
20
-140.8121561
40
2
50
180.9999996
51
270.9999996
0
ARC
8
0
10
104.7696785
20
-159.5649286
40
2
50
270.9999996
51
0.9999996
0
ARC
8
0
10
104.5253448
20
-145.5670609
40
2
50
0.9999996
51
90.9999996
0
ARC
8
0
10
90.5274771
20
-145.8113946
40
2
50
90.9999996
51
180.9999996
0
ARC
8
0
10
90.7718108
20
-159.8092623
40
2
50
180.9999996
51
270.9999996
0
ARC
8
0
10
86.2407189
20
-164.3011179
40
2
50
273.0000026
51
3.0000026
0
ARC
8
0
10
85.5080155
20
-150.3203045
40
2
50
3.0000026
51
93.0000026
0
ARC
8
0
10
71.5272021
20
-151.0530079
40
2
50
93.0000026
51
183.0000026
0
ARC
8
0
10
72.2599055
20
-165.0338213
40
2
50
183.0000026
51
273.0000026
0
ARC
8
0
10
84.2519525
20
-126.3531955
40
2
50
273.0000026
51
3.0000026
0
ARC
8
0
10
83.5192491
20
-112.3723821
40
2
50
3.0000026
51
93.0000026
0
ARC
8
0
10
69.5384357
20
-113.1050855
40
2
50
93.0000026
51
183.0000026
0
ARC
8
0
10
70.2711391
20
-127.0858989
40
2
50
183.0000026
51
273.0000026
0
ARC
8
0
10
85.2463357
20
-145.3271567
40
2
50
273.0000026
51
3.0000026
0
ARC
8
0
10
84.5136323
20
-131.3463433
40
2
50
3.0000026
51
93.0000026
0
ARC
8
0
10
70.5328189
20
-132.0790467
40
2
50
93.0000026
51
183.0000026
0
ARC
8
0
10
71.2655223
20
-146.0598601
40
2
50
183.0000026
51
273.0000026
0
ARC
8
0
10
83.2575693
20
-107.3792343
40
2
50
273.0000026
51
3.0000026
0
ARC
8
0
10
82.5248659
20
-93.3984209
40
2
50
3.0000026
51
93.0000026
0
ARC
8
0
10
68.5440525
20
-94.1311243
40
2
50
93.0000026
51
183.0000026
0
ARC
8
0
10
69.2767559
20
-108.1119377
40
2
50
183.0000026
51
273.0000026
0
ARC
8
0
10
167.2622688
20
-191.5018776
40
2
50
239.9999999
51
329.9999999
0
ARC
8
0
10
174.2622688
20
-179.377522
40
2
50
329.9999999
51
59.9999999
0
ARC
8
0
10
162.1379132
20
-172.377522
40
2
50
59.9999999
51
149.9999999
0
ARC
8
0
10
155.1379132
20
-184.5018776
40
2
50
149.9999999
51
239.9999999
0
ARC
8
0
10
151.0430742
20
-182.6802369
40
2
50
255.0000021
51
345.0000021
0
ARC
8
0
10
154.6665408
20
-169.1572755
40
2
50
345.0000021
51
75.0000021
0
ARC
8
0
10
141.1435794
20
-165.5338089
40
2
50
75.0000021
51
165.0000021
0
ARC
8
0
10
137.5201128
20
-179.0567703
40
2
50
165.0000021
51
255.0000021
0
LINE
8
0
10
162.4763269
20
-181.4042636
11
162.4763269
21
-108.0220229
0
LINE
8
0
10
163.1332734
20
-181.8789928
11
163.8251366
21
-181.6502613
0
LINE
8
0
10
164.2543033
20
-181.7055908
11
164.669655
21
-181.9751834
0
LINE
8
0
10
164.669655
20
-181.9751834
11
185.3763269
21
-170.0201808
0
LINE
8
0
10
185.6263269
20
-169.5871681
11
185.6263269
21
-108.0220229
0
LINE
8
0
10
162.9763269
20
-107.5220229
11
185.1263269
21
-107.5220229
0
ARC
8
0
10
162.9763269
20
-181.4042636
40
0.5
50
180
51
540
0
ARC
8
0
10
163.9820831
20
-182.1249905
40
0.5
50
57.0135762
51
417.0135762
0
ARC
8
0
10
185.1263269
20
-169.5871681
40
0.5
50
300.0000001
51
660.0000001
0
ARC
8
0
10
185.1263269
20
-108.0220229
40
0.5
50
0
51
360
0
ARC
8
0
10
162.9763269
20
-108.0220229
40
0.5
50
90
51
450
0
LINE
8
0
10
163.4763269
20
-180.7819899
11
163.4763269
21
-108.5220229
0
LINE
8
0
10
163.4763269
20
-180.7819899
11
164.5063269
21
-180.187319
0
LINE
8
0
10
164.5063269
20
-180.9147804
11
164.5063269
21
-180.187319
0
LINE
8
0
10
164.5063269
20
-180.9147804
11
184.6263269
21
-169.298493
0
LINE
8
0
10
184.6263269
20
-169.298493
11
184.6263269
21
-108.5220229
0
LINE
8
0
10
163.4763269
20
-108.5220229
11
184.6263269
21
-108.5220229
0
LINE
8
0
10
165.6763269
20
-111.2220229
11
165.6763269
21
-176.832914
0
LINE
8
0
10
182.1763269
20
-168.1726599
11
166.4263269
21
-177.2659267
0
LINE
8
0
10
182.4263269
20
-111.2220229
11
182.4263269
21
-167.7396472
0
LINE
8
0
10
166.1763269
20
-110.7220229
11
181.9263269
21
-110.7220229
0
ARC
8
0
10
166.1763269
20
-176.832914
40
0.5
50
180
51
300.0000001
0
ARC
8
0
10
181.9263269
20
-167.7396472
40
0.5
50
300.0000001
51
0
0
ARC
8
0
10
181.9263269
20
-111.2220229
40
0.5
50
0
51
90
0
ARC
8
0
10
166.1763269
20
-111.2220229
40
0.5
50
90
51
180
0
ENDSEC
0
EOF